<svg width="57" height="57" viewBox="0 0 57 57" fill="none" xmlns="http://www.w3.org/2000/svg">
<path d="M22.8675 6.7956C16.876 5.0627 8.46063 1.40436 5.44787 7.46385C2.15197 14.1236 7.98493 20.387 11.7905 25.3138C14.4069 29.0514 13.4781 32.2454 10.0123 35.8924C2.26523 44.0133 5.75368 54.8864 17.1591 55.0676C22.1313 55.0676 26.741 52.7118 31.1242 50.3559C39.5282 45.8255 44.7156 49.1667 50.1861 45.2365C53.8558 42.6202 51.2621 35.9377 49.7444 31.917C48.4498 28.5546 48.3658 24.8466 49.5066 21.429C50.6392 17.1024 51.3641 10.1028 46.5844 7.93954C44.4098 7.12406 41.9067 8.06413 39.6415 7.32793C36.8326 6.38786 35.4282 3.0693 32.6759 1.97067C27.3187 -0.1813 27.1827 7.92822 22.8675 6.7956Z" stroke="#052769" stroke-width="0.566307" stroke-miterlimit="10"/>
<path d="M33.061 3.27316C35.6774 4.29251 37.0365 7.4072 39.7095 8.30197C41.8048 9.00419 44.2399 8.08677 46.256 8.92491C50.7864 10.8277 50.3674 17.646 49.1441 21.7121C48.1632 24.9884 48.2545 28.4924 49.4046 31.7131C50.8204 35.564 53.1989 41.9066 49.7105 44.421C44.4778 48.204 39.5169 45.1572 31.5886 49.3819C27.4319 51.5791 23.0487 53.8104 18.3597 53.7311C7.59987 53.5725 4.28131 43.2658 11.4394 35.6093C14.656 32.1548 15.5961 29.0741 13.0817 25.5743C9.68388 20.806 4.11142 14.9391 7.24876 8.65308C10.0803 2.86542 18.0086 6.22928 23.683 7.76964C27.7604 8.8796 27.9529 1.25711 33.061 3.27316Z" stroke="#052769" stroke-width="0.554981" stroke-miterlimit="10"/>
<path d="M33.3894 4.53038C35.8699 5.49311 37.2063 8.38127 39.7321 9.23073C41.7141 9.89897 43.9907 9.06084 45.9275 9.865C50.2654 11.7338 49.835 18.1217 48.7817 21.9952C47.9041 25.1022 48.003 28.4038 49.0648 31.4526C50.3786 35.1449 52.5533 41.1364 49.246 43.5602C44.2965 47.1846 39.5735 44.4437 31.9963 48.3512C28.0661 50.4012 23.9321 52.4512 19.5376 52.3493C9.4007 52.1001 6.22938 42.4729 12.8325 35.2129C15.7999 31.9509 16.6607 29.0288 14.3162 25.7329C11.1109 21.2024 6.02551 15.6526 8.99296 9.72908C11.7112 4.32651 19.1864 7.38457 24.5097 8.77769C28.3153 9.79704 28.5871 2.7182 33.3894 4.53038Z" stroke="#052769" stroke-width="0.532329" stroke-miterlimit="10"/>
<path d="M33.7179 5.8782C36.0738 6.79562 37.3763 9.44594 39.7548 10.2501C41.6236 10.873 43.7755 10.1255 45.599 10.8957C49.6765 12.64 49.4046 18.6202 48.4193 22.2898C47.6391 25.2285 47.7375 28.3314 48.7024 31.2148C49.937 34.7486 51.8851 40.4003 48.7704 42.7222C44.104 46.1993 39.5962 43.7416 32.4267 47.3546C28.7118 49.2347 24.8269 51.1149 20.6702 50.9903C11.2129 50.7298 8.21144 41.7028 14.237 34.8619C16.9552 31.8038 17.7254 29.0515 15.5734 25.9369C12.6173 21.6442 7.92829 16.4116 10.7712 10.8504C13.3309 5.78759 20.2851 8.58515 25.3366 9.79705C28.9383 10.7031 29.2101 4.17928 33.7179 5.8782Z" stroke="#052769" stroke-width="0.521003" stroke-miterlimit="10"/>
<path d="M34.0464 7.18078C36.3116 7.99626 37.5235 10.4654 39.7774 11.2129C41.5443 11.8132 43.549 11.1563 45.2592 11.8811C49.0988 13.5347 48.9176 19.1072 48.0568 22.573C47.3787 25.3531 47.4886 28.2671 48.3739 30.9883C49.5065 34.3862 51.2508 39.6528 48.3173 41.8841C43.9228 45.2026 39.6302 43.0167 32.8798 46.4145C29.3913 48.1361 25.733 49.8124 21.8481 49.6878C13.0477 49.3253 10.1935 40.944 15.6527 34.5221C18.1218 31.6566 18.824 29.0742 16.8533 26.1407C14.1237 22.086 9.91033 17.1704 12.5494 11.9831C14.9618 7.24873 21.429 9.71783 26.1407 10.8504C29.5272 11.6093 29.8444 5.66307 34.0464 7.18078Z" stroke="#052769" stroke-width="0.509676" stroke-miterlimit="10"/>
<path d="M34.3861 8.48321C36.4815 9.23074 37.682 11.4734 39.8 12.1869C41.4537 12.7532 43.3338 12.1869 44.9308 12.8778C48.5212 14.4408 48.4419 19.5942 47.6944 22.8561C47.1085 25.4828 47.2257 28.2175 48.0341 30.7844C49.0648 33.9897 50.5938 38.9393 47.8416 41.0799C43.7415 44.1719 39.6415 42.3258 33.3215 45.3046C30.0482 46.8676 26.6391 48.3966 23.026 48.238C14.8712 47.8643 12.1189 40.1172 17.0685 34.137C19.3337 31.464 19.9 29.0515 18.1218 26.3106C15.63 22.4824 11.8471 17.884 14.3275 13.0704C16.5928 8.65311 22.5616 10.8051 26.9788 11.7792C30.1162 12.5267 30.4786 7.07877 34.3861 8.48321Z" stroke="#052769" stroke-width="0.487024" stroke-miterlimit="10"/>
<path d="M34.7146 9.78573C36.674 10.4653 37.852 12.4927 39.8227 13.1836C41.3744 13.7046 43.1186 13.1836 44.6023 13.8858C47.9322 15.3696 48.0002 20.1152 47.3319 23.1619C46.8454 25.6273 46.9698 28.1743 47.6944 30.5806C48.6231 33.616 49.9596 38.2257 47.3772 40.2644C43.5603 43.2772 39.6755 41.6802 33.7859 44.4098C30.7391 45.8142 27.5678 47.1507 24.2266 46.9808C16.7287 46.5504 14.1124 39.4489 18.5635 33.8991C20.523 31.4074 21.0666 29.1761 19.4583 26.6164C17.1931 23.0374 13.8745 18.7447 16.1737 14.2936C18.2917 10.2161 23.7849 12.0283 27.885 12.9005C30.7052 13.4328 31.1129 8.53986 34.7146 9.78573Z" stroke="#052769" stroke-width="0.475698" stroke-miterlimit="10"/>
<path d="M35.0431 11.0882C36.8779 11.6998 38.0106 13.512 39.8454 14.1349C41.2838 14.6219 42.8921 14.2142 44.2739 14.8485C47.3546 16.2529 47.4792 20.5795 46.9695 23.4223C46.5873 25.7106 46.7189 28.055 47.3546 30.286C48.1814 33.1741 49.2914 37.4215 46.9129 39.3469C43.3791 42.2011 39.7095 40.8986 34.1936 43.3337C31.3621 44.5796 28.44 45.7462 25.3706 45.5423C18.5749 45.0779 16.0492 38.5994 19.8887 33.48C21.6103 31.2147 22.0633 29.1081 20.6476 26.7409C18.6428 23.3997 15.732 19.4242 17.8727 15.3468C19.8434 11.5979 24.8382 13.0816 28.6325 13.8291C31.2941 14.3501 31.7132 9.98957 35.0431 11.0882Z" stroke="#052769" stroke-width="0.453046" stroke-miterlimit="10"/>
<path d="M35.3829 12.3909C37.0818 12.9346 38.1691 14.5316 39.9134 15.1092C41.2498 15.5623 42.7222 15.2338 43.9908 15.8341C46.8223 17.1479 47.0375 21.0668 46.6524 23.7624C46.3642 25.8826 46.5028 28.0391 47.0602 30.105C47.785 32.8233 48.6911 36.7308 46.4938 38.577C43.2432 41.2839 39.7774 40.2646 34.6807 42.3939C32.0643 43.5265 29.38 44.4779 26.5825 44.2514C20.3871 43.7417 18.0539 37.8974 21.3498 33.1971C22.8109 31.1017 23.196 29.1989 21.9614 27.0243C20.2059 23.9096 17.7141 20.2286 19.6962 16.5476C21.5084 13.1498 26.0275 14.3617 29.4933 14.9167C31.8831 15.2564 32.3701 11.4395 35.3829 12.3909Z" stroke="#052769" stroke-width="0.44172" stroke-miterlimit="10"/>
<path d="M35.7113 13.6934C37.2856 14.1691 38.3276 15.5509 39.8907 16.0719C41.1139 16.491 42.4504 16.2645 43.6056 16.8194C46.188 18.054 46.5051 21.5538 46.2446 24.0002C46.052 25.9505 46.1937 27.9193 46.6637 29.8218C47.2979 32.3816 48.0002 35.9493 45.9841 37.7502C43.0393 40.2532 39.7547 39.5284 35.111 41.3519C32.8127 42.4222 30.2941 42.9345 27.7604 42.8469C22.2105 42.2806 20.0246 37.0819 22.7542 32.812C23.384 32.0206 23.7654 31.0604 23.85 30.0525C23.9347 29.0447 23.7188 28.0342 23.2299 27.1489C21.7122 24.272 19.6622 20.9422 21.463 17.5896C23.1393 14.5089 27.1261 15.4377 30.3201 15.8454C32.4607 16.1739 33.0044 12.8893 35.7113 13.6934Z" stroke="#052769" stroke-width="0.430393" stroke-miterlimit="10"/>
<path d="M36.0398 14.9957C37.4895 15.3921 38.4975 16.5587 39.9133 17.0457C41.0459 17.4308 42.1785 17.2836 43.3111 17.8046C45.6443 18.9372 46.0521 22.0406 45.9162 24.2831C45.8233 26.0656 45.9719 27.8525 46.3579 29.5951C46.8902 31.9849 47.3772 35.2015 45.5424 36.8552C42.8694 39.2563 39.8793 38.8259 35.5414 40.3549C33.4507 41.2419 31.1822 41.6297 28.9156 41.4875C24.0227 40.8759 21.9727 36.3228 24.1586 32.4266C24.6593 31.6842 24.9534 30.8219 25.0112 29.9284C25.0689 29.0348 24.888 28.142 24.4871 27.3412C23.2072 24.7022 21.5876 21.6781 23.2299 18.7107C24.7589 15.9584 28.2927 16.5814 31.1582 16.8532C33.0497 17.0797 33.6386 14.3388 36.0398 14.9957Z" stroke="#052769" stroke-width="0.407741" stroke-miterlimit="10"/>
<path d="M36.3682 16.2983C37.6934 16.6268 38.6335 17.5782 39.936 18.0199C40.9577 18.203 41.9646 18.4603 42.9487 18.79C45.0214 19.8547 45.5311 22.5277 45.5198 24.5664C45.5211 26.1746 45.6766 27.7789 45.9841 29.3573C46.4145 31.6226 46.6977 34.4654 45.0441 36.0058C42.6542 38.271 39.8114 38.1238 35.9831 39.4036C34.1062 40.1137 32.0908 40.3811 30.0935 40.1851C29.1896 40.1129 28.3172 39.8202 27.5525 39.3327C26.7878 38.8453 26.1543 38.1778 25.7073 37.3888C25.2602 36.5998 25.0133 35.7132 24.9882 34.8068C24.9631 33.9003 25.1604 33.0014 25.5631 32.1889C25.9366 31.4972 26.1462 30.7289 26.1756 29.9435C26.2051 29.158 26.0536 28.3762 25.733 27.6584C24.7023 25.2459 23.4678 22.5503 24.9968 19.9453C26.3672 17.5215 29.414 17.8387 31.9397 17.9632C33.6386 17.9972 34.2729 15.7773 36.3682 16.2983Z" stroke="#052769" stroke-width="0.396415" stroke-miterlimit="10"/>
<path d="M36.708 17.6008C37.8206 17.9943 38.9064 18.4597 39.9586 18.994C40.8668 19.177 41.7573 19.4385 42.6203 19.7755C44.4438 20.7608 45.0441 23.0147 45.1573 24.8496C45.2366 26.2314 45.4292 27.7377 45.6444 29.1309C45.9728 31.2035 46.0408 33.7179 44.5797 35.1677C42.473 37.2744 39.8454 37.4329 36.3796 38.3503C34.7203 38.8818 32.961 39.0251 31.2375 38.7694C30.4596 38.667 29.7143 38.3925 29.0558 37.9657C28.3974 37.5389 27.8423 36.9707 27.4311 36.3023C27.02 35.6341 26.763 34.8825 26.6789 34.1024C26.5947 33.3222 26.6856 32.5331 26.9449 31.7925C27.4377 30.5092 27.4377 29.0891 26.9449 27.8057C26.1634 25.6311 25.4045 23.2752 26.7184 21.01C28.0322 18.7448 30.49 18.8807 32.7099 18.926C34.2276 18.9487 34.9072 17.2158 36.708 17.6008Z" stroke="#052769" stroke-width="0.385089" stroke-miterlimit="10"/>
<path d="M37.0365 18.9032C38.0468 19.1732 39.0319 19.5294 39.9813 19.9679C40.7609 20.1563 41.5196 20.4219 42.2465 20.7607C42.9626 21.2602 43.5585 21.9125 43.9914 22.6706C44.4243 23.4287 44.6833 24.2735 44.7496 25.1439C44.9195 26.3332 45.112 27.647 45.2593 28.8929C45.4745 30.807 45.3386 32.9703 44.1267 34.3294C42.2805 36.2435 39.868 36.7306 36.8213 37.3762C35.3714 37.723 33.8625 37.7422 32.4041 37.4328C31.0705 37.1745 29.8928 36.4002 29.1271 35.2782C28.3614 34.1562 28.0697 32.7773 28.3154 31.4412C28.5484 30.3158 28.5096 29.1509 28.2021 28.0434C27.6698 26.0953 27.33 24.0453 28.4739 22.1765C29.6179 20.3077 31.7132 20.1151 33.5707 19.9339C34.8053 19.8206 35.5528 18.654 37.0365 18.9032Z" stroke="#052769" stroke-width="0.362437" stroke-miterlimit="10"/>
<path d="M37.3763 20.206C38.2812 20.3433 39.1671 20.5866 40.0153 20.9308C40.6716 21.1381 41.3053 21.4113 41.9067 21.7463C43.1685 22.6163 44.0546 23.9312 44.3872 25.4273C44.6598 26.4854 44.8379 27.5657 44.9195 28.6553C45.1222 30.3783 44.6471 32.1126 43.5943 33.4915C41.9177 35.2317 39.6323 36.2546 37.2177 36.3457C35.9841 36.5236 34.7263 36.423 33.5367 36.0512C32.4681 35.7215 31.5281 35.0683 30.8465 34.1819C30.1649 33.2954 29.7752 32.2191 29.7311 31.1017C29.7078 30.1381 29.6207 29.1771 29.4706 28.2249C29.0841 26.5359 29.3639 24.763 30.2521 23.2753C30.7436 22.6318 31.3602 22.0944 32.0648 21.6953C32.7694 21.2963 33.5475 21.044 34.3522 20.9535C35.3942 20.7496 36.2437 20.0927 37.3763 20.206Z" stroke="#052769" stroke-width="0.35111" stroke-miterlimit="10"/>
<path d="M37.7048 35.3489C41.5268 35.3489 44.625 32.2506 44.625 28.4286C44.625 24.6066 41.5268 21.5083 37.7048 21.5083C33.8828 21.5083 30.7845 24.6066 30.7845 28.4286C30.7845 32.2506 33.8828 35.3489 37.7048 35.3489Z" stroke="#052769" stroke-width="0.328458" stroke-miterlimit="10"/>
</svg>
