<svg width="1337" height="821" viewBox="0 0 1337 821" fill="none" xmlns="http://www.w3.org/2000/svg">
<rect y="0.461548" width="1336" height="820" fill="#020F29"/>
<path d="M720.701 554.207L719.986 553.809L719.753 554.199L703.397 525.659L728.937 486.114C729.334 486.481 729.811 486.771 730.34 486.953L705.311 525.707L721.425 553.824L720.701 554.207" fill="url(#paint0_linear_101_202)"/>
<path d="M950.119 170.549L949.465 170.046L949.751 169.692L916.077 165.288L887.707 202.869C888.211 203.094 888.671 203.421 889.047 203.834L916.849 167.005L950.025 171.345L950.119 170.549" fill="url(#paint1_linear_101_202)"/>
<path d="M704.354 557.39L703.638 556.993L703.404 557.384L688.477 531.581L740.233 451.445C740.395 452.189 740.562 452.944 740.73 453.687L690.394 531.624L705.076 557.004L704.354 557.39" fill="url(#paint2_linear_101_202)"/>
<path d="M946.814 154.779L946.16 154.273L946.446 153.918L915.966 149.727L858.754 225.803C859.53 225.68 860.319 225.558 861.096 225.442L916.739 151.452L946.719 155.575L946.814 154.779" fill="url(#paint3_linear_101_202)"/>
<path d="M731.67 487.174C731.203 487.174 730.755 487.096 730.34 486.953C729.811 486.77 729.334 486.481 728.937 486.114C728.195 485.424 727.734 484.459 727.734 483.388C727.734 481.298 729.496 479.604 731.67 479.604C733.845 479.604 735.606 481.298 735.606 483.388C735.606 485.48 733.845 487.174 731.67 487.174" fill="url(#paint4_linear_101_202)"/>
<path d="M889.468 204.973C889.29 204.551 889.045 204.175 888.751 203.852C888.375 203.44 887.917 203.114 887.416 202.888C886.474 202.467 885.377 202.398 884.353 202.784C882.355 203.538 881.406 205.738 882.232 207.701C883.059 209.664 885.348 210.644 887.346 209.89C889.345 209.137 890.295 206.936 889.468 204.973" fill="url(#paint5_linear_101_202)"/>
<path d="M755.447 521.591C755.026 521.591 754.619 521.526 754.239 521.409L756.163 518.203L754.732 517.408L752.808 520.614C752.012 519.921 751.511 518.92 751.511 517.805C751.511 515.714 753.274 514.019 755.447 514.019C757.622 514.019 759.385 515.714 759.385 517.805C759.385 519.896 757.622 521.591 755.447 521.591" fill="url(#paint6_linear_101_202)"/>
<path d="M931.521 213.47C931.361 213.09 931.144 212.747 930.887 212.446L928.554 215.337L927.251 214.332L929.584 211.441C928.618 210.971 927.471 210.88 926.406 211.282C924.407 212.036 923.458 214.238 924.284 216.199C925.111 218.162 927.4 219.143 929.399 218.389C931.397 217.636 932.348 215.433 931.521 213.47" fill="url(#paint7_linear_101_202)"/>
<path d="M658.553 701.334H656.645L658.4 698.41L765.434 520.09C765.735 520.655 766.029 521.205 766.335 521.77L659.831 699.205L658.553 701.334" fill="url(#paint8_linear_101_202)"/>
<path d="M1068.14 60.3729L1067.41 58.6426L1065.27 61.2921L935.025 222.898C935.683 222.966 936.323 223.033 936.98 223.106L1066.58 62.3016L1068.14 60.3729" fill="url(#paint9_linear_101_202)"/>
<path d="M677.373 649.469L675.942 648.674L677.865 645.466L752.808 520.614L754.732 517.408L756.163 518.203L754.239 521.409L679.296 646.263L677.373 649.469" fill="url(#paint10_linear_101_202)"/>
<path d="M1025.32 96.3764L1024.01 95.3668L1021.67 98.2719L930.478 211.419L928.136 214.324L929.444 215.333L931.786 212.429L1022.98 99.2807L1025.32 96.3764" fill="url(#paint11_linear_101_202)"/>
<path d="M633.345 701.334H631.437L719.753 554.199L719.986 553.809L720.701 554.207L721.417 554.604L633.345 701.334" fill="url(#paint12_linear_101_202)"/>
<path d="M1059.03 37.8564L1058.3 36.1262L950.835 169.46L950.55 169.813L951.204 170.317L951.858 170.822L1059.03 37.8564" fill="url(#paint13_linear_101_202)"/>
<path d="M618.909 701.334H617L703.404 557.384L703.639 556.993L704.354 557.39L705.07 557.788L618.909 701.334" fill="url(#paint14_linear_101_202)"/>
<path d="M1053.7 24.9609L1052.98 23.2308L947.839 153.678L947.553 154.032L948.207 154.537L948.861 155.042L1053.7 24.9609" fill="url(#paint15_linear_101_202)"/>
<g filter="url(#filter0_di_101_202)">
<path d="M1085 285.187V284.392H946.541L877.074 400.126L946.541 515.86H1085.48L1154.95 400.126L1085.48 284.392H1085V285.187L1084.28 285.584L1153.04 400.126L1084.52 514.271H947.496L878.981 400.126L947.496 285.981H1085V285.187L1084.28 285.584L1085 285.187Z" fill="url(#paint16_linear_101_202)"/>
</g>
<g filter="url(#filter1_di_101_202)">
<path d="M1077.39 297.862V294.683H952.719L889.43 400.126L952.719 505.568H1079.3L1142.59 400.126L1079.3 294.683H1077.39V297.862L1074.53 299.452L1134.96 400.126L1075.48 499.211H956.535L897.061 400.126L956.535 301.041H1077.39V297.862L1074.53 299.452L1077.39 297.862" fill="url(#paint17_linear_101_202)"/>
</g>
<path d="M884.775 463.824L857.204 506.513L873.784 535.445L875.232 534.677L859.119 506.56L886.179 464.662L884.775 463.824Z" fill="url(#paint18_linear_101_202)"/>
<path d="M887.788 441.978L842.284 512.434L857.44 538.63L858.882 537.857L844.201 512.479L889.193 442.816L887.788 441.978Z" fill="url(#paint19_linear_101_202)"/>
<path d="M889.413 464.243C889.413 466.334 887.65 468.028 885.477 468.028C883.302 468.028 881.541 466.334 881.541 464.243C881.541 462.152 883.302 460.457 885.477 460.457C887.65 460.457 889.413 462.152 889.413 464.243Z" fill="url(#paint20_linear_101_202)"/>
<path d="M892.427 442.397C892.427 444.488 890.664 446.183 888.491 446.183C886.318 446.183 884.555 444.488 884.555 442.397C884.555 440.307 886.318 438.612 888.491 438.612C890.664 438.612 892.427 440.307 892.427 442.397Z" fill="url(#paint21_linear_101_202)"/>
<path d="M913.19 498.659C913.19 500.749 911.428 502.445 909.254 502.445C907.081 502.445 905.319 500.749 905.319 498.659C905.319 496.567 907.081 494.871 909.254 494.871C911.428 494.871 913.19 496.567 913.19 498.659Z" fill="url(#paint22_linear_101_202)"/>
<path d="M834.4 629.925C834.4 632.015 832.637 633.711 830.464 633.711C828.289 633.711 826.528 632.015 826.528 629.925C826.528 627.833 828.289 626.139 830.464 626.139C832.637 626.139 834.4 627.833 834.4 629.925Z" fill="url(#paint23_linear_101_202)"/>
<path d="M814.933 682.867C814.933 684.958 813.171 686.653 810.997 686.653C808.824 686.653 807.06 684.958 807.06 682.867C807.06 680.777 808.824 679.083 810.997 679.083C813.171 679.083 814.933 680.777 814.933 682.867Z" fill="url(#paint24_linear_101_202)"/>
<path d="M811.712 683.264L929.609 486.847L928.178 486.052L810.281 682.47" fill="url(#paint25_linear_101_202)"/>
<path d="M831.179 630.322L909.969 499.057L908.538 498.262L829.748 629.527" fill="url(#paint26_linear_101_202)"/>
<path d="M757.326 731.875L875.223 535.457L873.792 534.663L755.895 731.08" fill="url(#paint27_linear_101_202)"/>
<path d="M740.978 735.059L858.877 538.641L857.446 537.847L739.547 734.264" fill="url(#paint28_linear_101_202)"/>
<path d="M1024.15 540.874L999.544 584.148L966.168 584.488L966.186 586.078L1000.53 585.728L1025.6 541.637L1024.15 540.874" fill="url(#paint29_linear_101_202)"/>
<path d="M1042.44 527.601L1001.53 599.551L971.332 599.744L971.344 601.333L1002.51 601.136L1043.89 528.364L1042.44 527.601Z" fill="url(#paint30_linear_101_202)"/>
<path d="M1022.94 537.958C1021.05 538.987 1020.38 541.297 1021.45 543.118C1022.52 544.938 1024.92 545.579 1026.81 544.55C1028.71 543.52 1029.38 541.211 1028.3 539.393C1027.24 537.571 1024.83 536.929 1022.94 537.958Z" fill="url(#paint31_linear_101_202)"/>
<path d="M1041.23 524.688C1039.34 525.714 1038.67 528.025 1039.74 529.845C1040.81 531.667 1043.21 532.309 1045.1 531.279C1047 530.251 1047.66 527.941 1046.6 526.12C1045.52 524.3 1043.12 523.658 1041.23 524.688" fill="url(#paint32_linear_101_202)"/>
<path d="M980.093 534.979C978.2 536.009 977.534 538.319 978.601 540.14C979.672 541.96 982.073 542.601 983.965 541.572C985.859 540.542 986.525 538.233 985.457 536.414C984.386 534.593 981.985 533.951 980.093 534.979Z" fill="url(#paint33_linear_101_202)"/>
<path d="M900.048 665.542C898.156 666.571 897.488 668.882 898.559 670.7C899.627 672.521 902.028 673.164 903.921 672.134C905.813 671.105 906.481 668.796 905.412 666.974C904.343 665.155 901.942 664.514 900.048 665.542" fill="url(#paint34_linear_101_202)"/>
<path d="M864.356 711.592L984.129 516.227L982.706 515.42L862.932 710.785" fill="url(#paint35_linear_101_202)"/>
<path d="M902.697 669.242L982.741 538.681L981.318 537.874L901.272 668.434" fill="url(#paint36_linear_101_202)"/>
<path d="M847.115 781.053L966.888 585.687L965.466 584.879L845.693 780.245" fill="url(#paint37_linear_101_202)"/>
<path d="M852.276 796.308L972.049 600.942L970.626 600.134L850.853 795.5" fill="url(#paint38_linear_101_202)"/>
<path d="M1147.32 336.484L1174.89 293.795L1158.31 264.863L1156.86 265.631L1172.98 293.748L1145.92 335.647L1147.32 336.484Z" fill="url(#paint39_linear_101_202)"/>
<path d="M1144.31 358.331L1189.81 287.873L1174.66 261.678L1173.21 262.452L1187.9 287.83L1142.9 357.491L1144.31 358.331Z" fill="url(#paint40_linear_101_202)"/>
<path d="M1142.68 336.066C1142.68 333.974 1144.45 332.28 1146.62 332.28C1148.79 332.28 1150.56 333.974 1150.56 336.066C1150.56 338.156 1148.79 339.852 1146.62 339.852C1144.45 339.852 1142.68 338.156 1142.68 336.066Z" fill="url(#paint41_linear_101_202)"/>
<path d="M1139.67 357.911C1139.67 355.819 1141.43 354.125 1143.61 354.125C1145.78 354.125 1147.54 355.819 1147.54 357.911C1147.54 360.003 1145.78 361.697 1143.61 361.697C1141.43 361.697 1139.67 360.003 1139.67 357.911Z" fill="url(#paint42_linear_101_202)"/>
<path d="M1118.9 301.648C1118.9 299.558 1120.67 297.862 1122.84 297.862C1125.02 297.862 1126.78 299.558 1126.78 301.648C1126.78 303.74 1125.02 305.436 1122.84 305.436C1120.67 305.436 1118.9 303.74 1118.9 301.648Z" fill="url(#paint43_linear_101_202)"/>
<path d="M1220.38 117.041L1102.49 313.461L1103.92 314.256L1221.81 117.836" fill="url(#paint44_linear_101_202)"/>
<path d="M1200.92 169.985L1122.13 301.251L1123.56 302.046L1202.35 170.78" fill="url(#paint45_linear_101_202)"/>
<path d="M1274.77 68.4323L1156.87 264.85L1158.3 265.645L1276.2 69.227" fill="url(#paint46_linear_101_202)"/>
<path d="M1291.12 65.2486L1173.22 261.667L1174.65 262.461L1292.55 66.0433" fill="url(#paint47_linear_101_202)"/>
<path d="M1007.94 259.433L1032.55 216.158L1065.93 215.819L1065.91 214.23L1031.57 214.579L1006.49 258.67L1007.94 259.433Z" fill="url(#paint48_linear_101_202)"/>
<path d="M989.654 272.705L1030.57 200.757L1060.76 200.564L1060.75 198.975L1029.58 199.173L988.205 271.944L989.654 272.705" fill="url(#paint49_linear_101_202)"/>
<path d="M1009.15 262.348C1011.05 261.32 1011.71 259.01 1010.64 257.19C1009.57 255.371 1007.17 254.728 1005.28 255.757C1003.39 256.785 1002.72 259.095 1003.79 260.916C1004.86 262.736 1007.26 263.378 1009.15 262.348" fill="url(#paint50_linear_101_202)"/>
<path d="M990.866 275.62C992.758 274.591 993.425 272.282 992.355 270.462C991.285 268.641 988.884 267.999 986.991 269.028C985.1 270.057 984.433 272.366 985.502 274.186C986.571 276.008 988.974 276.65 990.866 275.62Z" fill="url(#paint51_linear_101_202)"/>
<path d="M902.671 335.575C904.565 334.547 905.231 332.236 904.16 330.416C903.092 328.596 900.691 327.954 898.798 328.982C896.906 330.01 896.238 332.321 897.307 334.141C898.376 335.963 900.779 336.603 902.671 335.575Z" fill="url(#paint52_linear_101_202)"/>
<path d="M1052 265.328C1053.9 264.298 1054.56 261.989 1053.49 260.169C1052.42 258.349 1050.02 257.707 1048.13 258.735C1046.24 259.764 1045.57 262.073 1046.64 263.895C1047.71 265.715 1050.11 266.357 1052 265.328Z" fill="url(#paint53_linear_101_202)"/>
<path d="M1167.74 88.7164L1047.97 284.081L1049.39 284.888L1169.16 89.5239" fill="url(#paint54_linear_101_202)"/>
<path d="M1129.4 131.065L1049.36 261.628L1050.78 262.436L1130.82 131.873" fill="url(#paint55_linear_101_202)"/>
<path d="M1184.98 19.257L1065.21 214.621L1066.63 215.429L1186.4 20.0645" fill="url(#paint56_linear_101_202)"/>
<path d="M1179.82 4.00001L1060.04 199.366L1061.47 200.173L1181.24 4.80745" fill="url(#paint57_linear_101_202)"/>
<path d="M924.282 291.37L871.102 379.966L872.533 380.76L925.713 292.164" fill="url(#paint58_linear_101_202)"/>
<path d="M1134.37 467.539C1136.27 466.509 1136.93 464.199 1135.86 462.379C1134.8 460.558 1132.39 459.917 1130.5 460.946C1128.61 461.976 1127.94 464.285 1129.01 466.103C1130.08 467.925 1132.48 468.567 1134.37 467.539Z" fill="url(#paint59_linear_101_202)"/>
<path d="M1155.99 423.333L1102.81 511.929L1104.24 512.724L1157.42 424.128" fill="url(#paint60_linear_101_202)"/>
<path d="M1164.44 473.063L1247.49 325.17L1220.2 257.782L1336.32 65.2661L1330.61 62.0745L1212.88 257.238L1240.22 324.736L1158.62 470.042L1164.44 473.063" fill="url(#paint61_linear_101_202)"/>
<path d="M1165.13 480.675H1161.83C1161.82 481.983 1161.28 483.137 1160.39 483.997C1159.5 484.852 1158.3 485.37 1156.94 485.373C1155.58 485.372 1154.38 484.852 1153.49 483.997C1152.6 483.137 1152.06 481.983 1152.06 480.675C1152.06 479.368 1152.6 478.215 1153.49 477.355C1154.38 476.5 1155.58 475.98 1156.94 475.978C1158.3 475.98 1159.5 476.5 1160.39 477.355C1161.28 478.215 1161.82 479.368 1161.83 480.675H1165.13H1168.44C1168.43 474.568 1163.29 469.624 1156.94 469.62C1150.59 469.624 1145.45 474.57 1145.45 480.675C1145.45 486.783 1150.59 491.728 1156.94 491.729C1163.29 491.729 1168.43 486.783 1168.44 480.675H1165.13" fill="url(#paint62_linear_101_202)"/>
<path d="M869.797 327.246L786.741 475.137L814.034 542.526L697.906 735.042L703.623 738.232L821.347 543.069L794.01 475.571L875.612 330.268L869.797 327.246Z" fill="url(#paint63_linear_101_202)"/>
<path d="M869.101 319.631H872.406C872.408 318.325 872.946 317.171 873.835 316.311C874.729 315.456 875.931 314.936 877.289 314.934C878.647 314.936 879.847 315.456 880.741 316.311C881.63 317.171 882.17 318.325 882.172 319.631C882.17 320.939 881.63 322.093 880.741 322.953C879.847 323.808 878.647 324.328 877.289 324.33C875.931 324.328 874.729 323.808 873.835 322.953C872.946 322.093 872.408 320.939 872.406 319.631H869.101H865.796C865.798 325.738 870.94 330.684 877.289 330.687C883.638 330.684 888.778 325.738 888.782 319.631C888.778 313.525 883.638 308.58 877.289 308.577C870.94 308.58 865.798 313.525 865.796 319.631H869.101" fill="url(#paint64_linear_101_202)"/>
<path d="M913.19 274.177C905.947 274.177 900.073 268.527 900.073 261.559C900.073 254.591 905.947 248.94 913.19 248.94C920.436 248.94 926.31 254.591 926.31 261.559C926.31 268.527 920.436 274.177 913.19 274.177ZM928.701 261.559C928.701 261.39 928.693 261.223 928.688 261.056L930.479 260.875L930.25 258.769L928.46 258.951C928.399 258.618 928.328 258.291 928.247 257.967L929.954 257.433L929.275 255.419L927.566 255.953C927.432 255.641 927.294 255.335 927.142 255.034L928.696 254.171L927.594 252.337L926.041 253.202C925.844 252.923 925.636 252.655 925.423 252.391L926.76 251.232L925.287 249.659L923.949 250.817C923.698 250.585 923.44 250.36 923.172 250.143L924.232 248.745L922.45 247.499L921.393 248.899C921.097 248.721 920.798 248.552 920.489 248.394L921.221 246.817L919.21 245.955L918.478 247.53C918.152 247.418 917.82 247.317 917.485 247.224L917.858 245.533L915.705 245.092L915.33 246.785C914.988 246.739 914.641 246.706 914.292 246.682V244.949H912.089V246.682C911.741 246.706 911.394 246.739 911.052 246.785L910.678 245.092L908.524 245.533L908.899 247.224C908.563 247.317 908.228 247.418 907.902 247.53L907.173 245.955L905.162 246.817L905.893 248.394C905.585 248.552 905.283 248.721 904.989 248.899L903.933 247.499L902.152 248.745L903.208 250.143C902.942 250.36 902.684 250.585 902.434 250.817L901.096 249.659L899.622 251.232L900.96 252.391C900.746 252.655 900.537 252.923 900.342 253.202L898.786 252.337L897.685 254.171L899.24 255.034C899.088 255.335 898.949 255.641 898.817 255.953L897.109 255.419L896.429 257.433L898.136 257.967C898.054 258.291 897.983 258.618 897.922 258.951L896.134 258.769L895.902 260.875L897.694 261.056C897.689 261.223 897.682 261.39 897.682 261.559C897.682 261.727 897.689 261.894 897.694 262.061L895.902 262.242L896.134 264.348L897.922 264.167C897.983 264.499 898.054 264.827 898.136 265.151L896.429 265.685L897.109 267.699L898.817 267.165C898.949 267.476 899.088 267.783 899.242 268.083L897.685 268.946L898.786 270.781L900.342 269.916C900.537 270.194 900.746 270.463 900.96 270.727L899.622 271.885L901.096 273.459L902.434 272.3C902.684 272.532 902.942 272.758 903.208 272.974L902.152 274.374L903.933 275.619L904.989 274.219C905.283 274.397 905.585 274.565 905.893 274.722L905.162 276.301L907.173 277.162L907.902 275.587C908.229 275.701 908.563 275.802 908.899 275.894L908.524 277.585L910.678 278.025L911.052 276.332C911.394 276.379 911.741 276.412 912.089 276.436V278.168H914.292V276.436C914.641 276.412 914.988 276.379 915.33 276.332L915.705 278.025L917.858 277.585L917.485 275.894C917.82 275.802 918.152 275.701 918.478 275.587L919.21 277.162L921.221 276.301L920.489 274.724C920.798 274.565 921.097 274.397 921.393 274.219L922.45 275.619L924.232 274.374L923.172 272.974C923.44 272.758 923.698 272.532 923.949 272.3L925.287 273.459L926.76 271.885L925.423 270.727C925.636 270.463 925.844 270.194 926.041 269.916L927.594 270.781L928.696 268.946L927.142 268.083C927.294 267.783 927.432 267.476 927.566 267.165L929.275 267.699L929.954 265.685L928.247 265.151C928.328 264.827 928.399 264.499 928.46 264.167L930.25 264.348L930.479 262.242L928.688 262.061C928.693 261.894 928.701 261.727 928.701 261.559" fill="url(#paint65_linear_101_202)"/>
<path d="M1066.29 552.368C1062.08 552.368 1058.67 549.087 1058.67 545.042C1058.67 540.997 1062.08 537.716 1066.29 537.716C1070.49 537.716 1073.9 540.997 1073.9 545.042C1073.9 549.087 1070.49 552.368 1066.29 552.368ZM1075.29 545.042L1075.28 544.751L1076.32 544.646L1076.19 543.422L1075.15 543.527C1075.11 543.335 1075.07 543.144 1075.03 542.957L1076.02 542.647L1075.62 541.477L1074.63 541.788C1074.56 541.606 1074.47 541.428 1074.39 541.254L1075.29 540.752L1074.65 539.687L1073.75 540.189C1073.63 540.029 1073.51 539.873 1073.39 539.719L1074.16 539.047L1073.31 538.133L1072.53 538.807C1072.39 538.672 1072.24 538.541 1072.08 538.416L1072.7 537.602L1071.66 536.88L1071.05 537.692C1070.88 537.589 1070.7 537.492 1070.52 537.4L1070.95 536.483L1069.78 535.982L1069.36 536.898C1069.17 536.833 1068.98 536.774 1068.78 536.72L1069 535.737L1067.75 535.483L1067.53 536.465C1067.33 536.438 1067.13 536.419 1066.92 536.405V535.399H1065.65V536.405C1065.45 536.419 1065.24 536.438 1065.05 536.465L1064.83 535.483L1063.58 535.737L1063.79 536.72C1063.6 536.774 1063.41 536.833 1063.22 536.898L1062.79 535.982L1061.63 536.483L1062.05 537.4C1061.87 537.492 1061.7 537.589 1061.53 537.692L1060.91 536.88L1059.88 537.602L1060.49 538.416C1060.34 538.541 1060.19 538.672 1060.04 538.807L1059.27 538.133L1058.41 539.047L1059.19 539.719C1059.06 539.873 1058.94 540.029 1058.83 540.189L1057.92 539.687L1057.28 540.752L1058.19 541.254C1058.1 541.428 1058.02 541.606 1057.94 541.788L1056.95 541.477L1056.56 542.647L1057.55 542.957C1057.5 543.144 1057.46 543.335 1057.42 543.527L1056.39 543.422L1056.25 544.646L1057.29 544.751L1057.28 545.042L1057.29 545.333L1056.25 545.439L1056.39 546.662L1057.42 546.557C1057.46 546.749 1057.5 546.94 1057.55 547.127L1056.56 547.436L1056.95 548.607L1057.94 548.296C1058.02 548.477 1058.1 548.655 1058.19 548.83L1057.28 549.33L1057.92 550.395L1058.83 549.893C1058.94 550.055 1059.06 550.211 1059.19 550.363L1058.41 551.037L1059.27 551.95L1060.04 551.277C1060.19 551.412 1060.34 551.543 1060.49 551.668L1059.88 552.481L1060.91 553.204L1061.53 552.392C1061.7 552.495 1061.87 552.593 1062.05 552.684L1061.63 553.599L1062.79 554.1L1063.22 553.186C1063.41 553.253 1063.6 553.31 1063.79 553.364L1063.58 554.345L1064.83 554.601L1065.05 553.619C1065.24 553.646 1065.45 553.665 1065.65 553.679V554.683H1066.92V553.679C1067.13 553.665 1067.33 553.646 1067.53 553.619L1067.75 554.601L1069 554.345L1068.78 553.364C1068.98 553.31 1069.17 553.253 1069.36 553.186L1069.78 554.1L1070.95 553.599L1070.52 552.684C1070.7 552.593 1070.88 552.495 1071.05 552.392L1071.66 553.204L1072.7 552.481L1072.08 551.668C1072.24 551.543 1072.39 551.412 1072.53 551.277L1073.31 551.95L1074.16 551.037L1073.39 550.363C1073.51 550.211 1073.63 550.055 1073.75 549.893L1074.65 550.395L1075.29 549.33L1074.39 548.83C1074.47 548.655 1074.56 548.477 1074.63 548.296L1075.62 548.607L1076.02 547.436L1075.03 547.127C1075.07 546.94 1075.11 546.749 1075.15 546.557L1076.19 546.662L1076.32 545.439L1075.28 545.333L1075.29 545.042Z" fill="url(#paint66_linear_101_202)"/>
<path d="M1045.6 174.708C1041.84 174.708 1038.78 171.772 1038.78 168.15C1038.78 164.526 1041.84 161.59 1045.6 161.59C1049.37 161.59 1052.42 164.526 1052.42 168.15C1052.42 171.772 1049.37 174.708 1045.6 174.708ZM1056.46 169.944L1055.66 169.664C1055.21 169.509 1054.94 169.089 1054.96 168.634C1054.97 168.474 1054.98 168.312 1054.98 168.15C1054.98 167.994 1054.97 167.84 1054.96 167.686L1056.58 167.269C1057.14 167.124 1057.48 166.565 1057.32 166.023L1056.86 164.352C1056.71 163.81 1056.13 163.486 1055.56 163.632L1054.74 163.845C1054.28 163.961 1053.81 163.772 1053.56 163.388L1053.45 163.226C1053.2 162.846 1053.22 162.351 1053.52 162.003L1054.07 161.374C1054.44 160.943 1054.39 160.301 1053.94 159.94L1052.56 158.829C1052.11 158.467 1051.44 158.522 1051.07 158.955L1050.52 159.581C1050.22 159.926 1049.72 160.037 1049.29 159.861C1048.98 159.729 1048.65 159.614 1048.31 159.517C1047.87 159.387 1047.56 158.995 1047.56 158.546V157.726C1047.56 157.163 1047.09 156.707 1046.5 156.707H1044.71C1044.12 156.707 1043.65 157.163 1043.65 157.726V158.543C1043.65 158.998 1043.33 159.389 1042.88 159.521L1042.69 159.578C1042.24 159.719 1041.75 159.571 1041.48 159.2L1040.99 158.53C1040.66 158.071 1040 157.958 1039.52 158.281L1038.04 159.273C1037.57 159.595 1037.45 160.231 1037.78 160.69L1038.27 161.363C1038.55 161.735 1038.52 162.229 1038.23 162.587L1038.11 162.738C1037.82 163.1 1037.33 163.251 1036.89 163.095L1036.09 162.815C1035.54 162.622 1034.93 162.895 1034.73 163.424L1034.12 165.047C1033.92 165.576 1034.2 166.161 1034.75 166.354L1035.55 166.633C1036 166.789 1036.27 167.209 1036.24 167.663C1036.23 167.824 1036.23 167.986 1036.23 168.15C1036.23 168.304 1036.23 168.458 1036.24 168.612L1034.63 169.029C1034.07 169.173 1033.73 169.733 1033.88 170.275L1034.35 171.945C1034.5 172.489 1035.08 172.811 1035.64 172.665L1036.47 172.454C1036.92 172.336 1037.39 172.525 1037.65 172.91L1037.75 173.072C1038.01 173.452 1037.99 173.946 1037.69 174.294L1037.14 174.922C1036.76 175.354 1036.82 175.997 1037.27 176.359L1038.65 177.468C1039.09 177.831 1039.76 177.775 1040.14 177.343L1040.69 176.715C1040.99 176.372 1041.48 176.26 1041.91 176.437C1042.23 176.569 1042.56 176.683 1042.89 176.78C1043.34 176.911 1043.65 177.303 1043.65 177.753V178.571C1043.65 179.134 1044.12 179.59 1044.71 179.59H1046.5C1047.09 179.59 1047.56 179.134 1047.56 178.571V177.754C1047.56 177.3 1047.87 176.909 1048.33 176.777L1048.52 176.72C1048.97 176.578 1049.46 176.726 1049.73 177.098L1050.21 177.766C1050.55 178.227 1051.21 178.339 1051.69 178.017L1053.16 177.027C1053.64 176.702 1053.76 176.067 1053.42 175.606L1052.93 174.935C1052.66 174.563 1052.68 174.069 1052.98 173.713L1053.1 173.558C1053.38 173.198 1053.87 173.048 1054.32 173.202L1055.12 173.482C1055.67 173.676 1056.27 173.403 1056.47 172.873L1057.09 171.251C1057.29 170.721 1057.01 170.136 1056.46 169.944" fill="url(#paint67_linear_101_202)"/>
<path d="M913.19 574.503C909.426 574.503 906.372 571.566 906.372 567.944C906.372 564.322 909.426 561.386 913.19 561.386C916.958 561.386 920.01 564.322 920.01 567.944C920.01 571.566 916.958 574.503 913.19 574.503ZM924.043 569.74L923.244 569.46C922.799 569.303 922.525 568.885 922.55 568.429C922.559 568.27 922.564 568.106 922.564 567.944C922.564 567.788 922.559 567.634 922.551 567.481L924.164 567.065C924.731 566.919 925.065 566.361 924.914 565.817L924.448 564.148C924.298 563.605 923.716 563.282 923.153 563.428L922.328 563.64C921.872 563.757 921.398 563.568 921.15 563.184L921.041 563.02C920.783 562.64 920.805 562.146 921.107 561.799L921.656 561.17C922.032 560.739 921.974 560.095 921.525 559.734L920.149 558.623C919.701 558.263 919.032 558.318 918.656 558.751L918.109 559.377C917.809 559.722 917.31 559.831 916.882 559.655C916.563 559.525 916.237 559.41 915.902 559.312C915.454 559.183 915.148 558.789 915.148 558.341V557.52C915.148 556.959 914.674 556.502 914.089 556.502H912.293C911.708 556.502 911.234 556.959 911.234 557.52V558.339C911.234 558.792 910.918 559.185 910.467 559.315L910.275 559.374C909.827 559.514 909.337 559.366 909.066 558.995L908.578 558.326C908.244 557.865 907.583 557.754 907.104 558.077L905.632 559.067C905.153 559.39 905.037 560.025 905.373 560.486L905.862 561.157C906.133 561.531 906.108 562.023 905.817 562.381L905.695 562.532C905.412 562.896 904.921 563.045 904.48 562.891L903.677 562.61C903.129 562.417 902.52 562.689 902.321 563.219L901.706 564.843C901.506 565.372 901.79 565.957 902.34 566.149L903.138 566.429C903.585 566.583 903.859 567.005 903.832 567.458C903.823 567.62 903.818 567.78 903.818 567.944C903.818 568.098 903.821 568.254 903.829 568.408L902.218 568.823C901.653 568.967 901.317 569.527 901.469 570.071L901.934 571.739C902.086 572.283 902.666 572.606 903.231 572.461L904.054 572.248C904.51 572.13 904.983 572.321 905.234 572.706L905.34 572.866C905.599 573.248 905.579 573.742 905.275 574.09L904.726 574.716C904.351 575.149 904.409 575.791 904.857 576.153L906.233 577.264C906.681 577.627 907.349 577.569 907.726 577.139L908.274 576.511C908.573 576.168 909.071 576.055 909.502 576.233C909.818 576.365 910.146 576.479 910.48 576.574C910.926 576.705 911.234 577.097 911.234 577.547V578.366C911.234 578.93 911.708 579.386 912.293 579.386H914.089C914.674 579.386 915.148 578.93 915.148 578.366V577.55C915.148 577.096 915.462 576.703 915.915 576.571L916.107 576.514C916.554 576.373 917.045 576.52 917.315 576.894L917.802 577.562C918.138 578.024 918.798 578.135 919.278 577.813L920.75 576.821C921.229 576.498 921.345 575.862 921.011 575.401L920.52 574.729C920.251 574.359 920.274 573.863 920.565 573.507L920.687 573.354C920.97 572.992 921.459 572.843 921.903 572.997L922.703 573.278C923.253 573.47 923.862 573.197 924.062 572.668L924.675 571.045C924.876 570.517 924.594 569.932 924.043 569.74" fill="url(#paint68_linear_101_202)"/>
<path d="M1114.42 531.468C1112.09 531.468 1110.2 529.651 1110.2 527.409C1110.2 525.168 1112.09 523.349 1114.42 523.349C1116.75 523.349 1118.64 525.168 1118.64 527.409C1118.64 529.651 1116.75 531.468 1114.42 531.468ZM1121.14 528.52L1120.64 528.348C1120.37 528.25 1120.2 527.99 1120.21 527.709L1120.22 527.409L1120.22 527.123L1121.21 526.865C1121.56 526.775 1121.77 526.43 1121.68 526.093L1121.39 525.06C1121.3 524.723 1120.94 524.524 1120.59 524.615L1120.08 524.745C1119.8 524.818 1119.5 524.7 1119.35 524.462L1119.28 524.362C1119.12 524.127 1119.14 523.821 1119.32 523.605L1119.66 523.217C1119.89 522.95 1119.86 522.551 1119.58 522.329L1118.73 521.641C1118.45 521.417 1118.04 521.453 1117.81 521.72L1117.47 522.108C1117.28 522.321 1116.97 522.389 1116.71 522.28C1116.51 522.197 1116.31 522.129 1116.1 522.067C1115.82 521.987 1115.64 521.742 1115.64 521.467V520.959C1115.64 520.611 1115.34 520.329 1114.98 520.329H1113.87C1113.51 520.329 1113.21 520.611 1113.21 520.959V521.466C1113.21 521.746 1113.02 521.989 1112.74 522.068L1112.62 522.105C1112.34 522.192 1112.04 522.102 1111.87 521.871L1111.57 521.458C1111.36 521.172 1110.95 521.102 1110.66 521.302L1109.75 521.916C1109.45 522.116 1109.38 522.509 1109.59 522.793L1109.89 523.209C1110.06 523.44 1110.04 523.745 1109.86 523.966L1109.78 524.06C1109.61 524.286 1109.31 524.378 1109.03 524.282L1108.54 524.109C1108.2 523.988 1107.82 524.158 1107.7 524.484L1107.32 525.49C1107.19 525.818 1107.37 526.179 1107.71 526.298L1108.2 526.471C1108.48 526.566 1108.65 526.827 1108.63 527.108L1108.62 527.409L1108.63 527.695L1107.63 527.954C1107.28 528.043 1107.07 528.389 1107.17 528.725L1107.46 529.758C1107.55 530.093 1107.91 530.294 1108.26 530.205L1108.77 530.073C1109.05 530.001 1109.34 530.117 1109.5 530.356L1109.56 530.456C1109.72 530.691 1109.71 530.998 1109.53 531.212L1109.19 531.6C1108.95 531.867 1108.99 532.264 1109.27 532.489L1110.12 533.177C1110.39 533.399 1110.81 533.366 1111.04 533.099L1111.38 532.711C1111.57 532.498 1111.87 532.428 1112.14 532.538C1112.34 532.619 1112.54 532.69 1112.75 532.751C1113.02 532.83 1113.21 533.073 1113.21 533.352V533.859C1113.21 534.207 1113.51 534.49 1113.87 534.49H1114.98C1115.34 534.49 1115.64 534.207 1115.64 533.859V533.353C1115.64 533.072 1115.83 532.83 1116.11 532.748L1116.23 532.713C1116.5 532.625 1116.81 532.717 1116.98 532.946L1117.28 533.361C1117.48 533.647 1117.89 533.716 1118.19 533.517L1119.1 532.902C1119.4 532.703 1119.47 532.309 1119.26 532.024L1118.96 531.608C1118.79 531.379 1118.81 531.072 1118.99 530.851L1119.06 530.756C1119.24 530.534 1119.54 530.44 1119.81 530.537L1120.31 530.71C1120.65 530.829 1121.03 530.661 1121.15 530.333L1121.53 529.329C1121.66 529.001 1121.48 528.639 1121.14 528.52" fill="url(#paint69_linear_101_202)"/>
<path opacity="0.5" d="M999.725 367.043C999.725 361.185 1004.25 356.706 1010.16 356.706C1016.08 356.706 1020.6 361.185 1020.6 367.043V373.934H1027.56V367.043C1027.56 357.395 1019.91 349.815 1010.16 349.815C1000.42 349.815 992.767 357.395 992.767 367.043V373.934H999.725V367.043ZM1015.38 392.885C1015.38 390.128 1012.95 387.716 1010.16 387.716C1007.38 387.716 1004.94 390.128 1004.94 392.885C1004.94 394.263 1005.64 395.641 1006.68 396.675V401.499C1006.68 403.566 1008.08 404.944 1010.16 404.944C1012.25 404.944 1013.64 403.566 1013.64 401.499V396.675C1014.69 395.641 1015.38 394.263 1015.38 392.885Z" fill="#4669AE"/>
<path d="M1027.56 373.934H992.767C986.852 373.934 982.329 378.413 982.329 384.271V408.39C982.329 414.247 986.852 418.727 992.767 418.727H1027.56C1033.47 418.727 1038 414.247 1038 408.39V384.271C1038 378.413 1033.47 373.934 1027.56 373.934ZM1013.64 396.675V401.499C1013.64 403.566 1012.25 404.944 1010.16 404.944C1008.08 404.944 1006.68 403.566 1006.68 401.499V396.675C1005.64 395.641 1004.94 394.263 1004.94 392.885C1004.94 390.128 1007.38 387.716 1010.16 387.716C1012.95 387.716 1015.38 390.128 1015.38 392.885C1015.38 394.263 1014.69 395.641 1013.64 396.675Z" fill="#4669AE"/>
<defs>
<filter id="filter0_di_101_202" x="863.915" y="271.232" width="304.19" height="257.787" filterUnits="userSpaceOnUse" color-interpolation-filters="sRGB">
<feFlood flood-opacity="0" result="BackgroundImageFix"/>
<feColorMatrix in="SourceAlpha" type="matrix" values="0 0 0 0 0 0 0 0 0 0 0 0 0 0 0 0 0 0 127 0" result="hardAlpha"/>
<feOffset/>
<feGaussianBlur stdDeviation="6.5798"/>
<feColorMatrix type="matrix" values="0 0 0 0 0.509804 0 0 0 0 0.843137 0 0 0 0 0.968627 0 0 0 1 0"/>
<feBlend mode="normal" in2="BackgroundImageFix" result="effect1_dropShadow_101_202"/>
<feBlend mode="normal" in="SourceGraphic" in2="effect1_dropShadow_101_202" result="shape"/>
<feColorMatrix in="SourceAlpha" type="matrix" values="0 0 0 0 0 0 0 0 0 0 0 0 0 0 0 0 0 0 127 0" result="hardAlpha"/>
<feOffset dy="3.50922"/>
<feGaussianBlur stdDeviation="4.38653"/>
<feComposite in2="hardAlpha" operator="arithmetic" k2="-1" k3="1"/>
<feColorMatrix type="matrix" values="0 0 0 0 0.509804 0 0 0 0 0.843137 0 0 0 0 0.968627 0 0 0 0.5 0"/>
<feBlend mode="normal" in2="shape" result="effect2_innerShadow_101_202"/>
</filter>
<filter id="filter1_di_101_202" x="876.27" y="281.524" width="279.478" height="237.204" filterUnits="userSpaceOnUse" color-interpolation-filters="sRGB">
<feFlood flood-opacity="0" result="BackgroundImageFix"/>
<feColorMatrix in="SourceAlpha" type="matrix" values="0 0 0 0 0 0 0 0 0 0 0 0 0 0 0 0 0 0 127 0" result="hardAlpha"/>
<feOffset/>
<feGaussianBlur stdDeviation="6.5798"/>
<feColorMatrix type="matrix" values="0 0 0 0 0.509804 0 0 0 0 0.843137 0 0 0 0 0.968627 0 0 0 1 0"/>
<feBlend mode="normal" in2="BackgroundImageFix" result="effect1_dropShadow_101_202"/>
<feBlend mode="normal" in="SourceGraphic" in2="effect1_dropShadow_101_202" result="shape"/>
<feColorMatrix in="SourceAlpha" type="matrix" values="0 0 0 0 0 0 0 0 0 0 0 0 0 0 0 0 0 0 127 0" result="hardAlpha"/>
<feOffset dy="3.50922"/>
<feGaussianBlur stdDeviation="4.38653"/>
<feComposite in2="hardAlpha" operator="arithmetic" k2="-1" k3="1"/>
<feColorMatrix type="matrix" values="0 0 0 0 0.509804 0 0 0 0 0.843137 0 0 0 0 0.968627 0 0 0 0.5 0"/>
<feBlend mode="normal" in2="shape" result="effect2_innerShadow_101_202"/>
</filter>
<linearGradient id="paint0_linear_101_202" x1="182.092" y1="-122.762" x2="743.754" y2="364.438" gradientUnits="userSpaceOnUse">
<stop stop-color="#2C50AA"/>
<stop offset="0.334905" stop-color="#274188"/>
<stop offset="0.707645" stop-color="#1F2B56"/>
<stop offset="1" stop-color="#1B2548"/>
</linearGradient>
<linearGradient id="paint1_linear_101_202" x1="94.1999" y1="-70.443" x2="757.604" y2="294.55" gradientUnits="userSpaceOnUse">
<stop stop-color="#2C50AA"/>
<stop offset="0.334905" stop-color="#274188"/>
<stop offset="0.707645" stop-color="#1F2B56"/>
<stop offset="1" stop-color="#1B2548"/>
</linearGradient>
<linearGradient id="paint2_linear_101_202" x1="182.091" y1="-122.763" x2="743.753" y2="364.438" gradientUnits="userSpaceOnUse">
<stop stop-color="#2C50AA"/>
<stop offset="0.334905" stop-color="#274188"/>
<stop offset="0.707645" stop-color="#1F2B56"/>
<stop offset="1" stop-color="#1B2548"/>
</linearGradient>
<linearGradient id="paint3_linear_101_202" x1="94.2277" y1="-72.6672" x2="759.69" y2="291.358" gradientUnits="userSpaceOnUse">
<stop stop-color="#2C50AA"/>
<stop offset="0.334905" stop-color="#274188"/>
<stop offset="0.707645" stop-color="#1F2B56"/>
<stop offset="1" stop-color="#1B2548"/>
</linearGradient>
<linearGradient id="paint4_linear_101_202" x1="182.086" y1="-122.766" x2="743.751" y2="364.44" gradientUnits="userSpaceOnUse">
<stop stop-color="#2C50AA"/>
<stop offset="0.334905" stop-color="#274188"/>
<stop offset="0.707645" stop-color="#1F2B56"/>
<stop offset="1" stop-color="#1B2548"/>
</linearGradient>
<linearGradient id="paint5_linear_101_202" x1="97.5911" y1="-71.307" x2="759.726" y2="291.214" gradientUnits="userSpaceOnUse">
<stop stop-color="#2C50AA"/>
<stop offset="0.334905" stop-color="#274188"/>
<stop offset="0.707645" stop-color="#1F2B56"/>
<stop offset="1" stop-color="#1B2548"/>
</linearGradient>
<linearGradient id="paint6_linear_101_202" x1="182.088" y1="-122.768" x2="743.754" y2="364.436" gradientUnits="userSpaceOnUse">
<stop stop-color="#2C50AA"/>
<stop offset="0.334905" stop-color="#274188"/>
<stop offset="0.707645" stop-color="#1F2B56"/>
<stop offset="1" stop-color="#1B2548"/>
</linearGradient>
<linearGradient id="paint7_linear_101_202" x1="97.7096" y1="-71.8664" x2="759.843" y2="290.657" gradientUnits="userSpaceOnUse">
<stop stop-color="#2C50AA"/>
<stop offset="0.334905" stop-color="#274188"/>
<stop offset="0.707645" stop-color="#1F2B56"/>
<stop offset="1" stop-color="#1B2548"/>
</linearGradient>
<linearGradient id="paint8_linear_101_202" x1="182.09" y1="-122.763" x2="743.752" y2="364.439" gradientUnits="userSpaceOnUse">
<stop stop-color="#2C50AA"/>
<stop offset="0.334905" stop-color="#274188"/>
<stop offset="0.707645" stop-color="#1F2B56"/>
<stop offset="1" stop-color="#1B2548"/>
</linearGradient>
<linearGradient id="paint9_linear_101_202" x1="95.8335" y1="-73.1572" x2="760.488" y2="290.573" gradientUnits="userSpaceOnUse">
<stop stop-color="#2C50AA"/>
<stop offset="0.334905" stop-color="#274188"/>
<stop offset="0.707645" stop-color="#1F2B56"/>
<stop offset="1" stop-color="#1B2548"/>
</linearGradient>
<linearGradient id="paint10_linear_101_202" x1="182.09" y1="-122.763" x2="743.753" y2="364.439" gradientUnits="userSpaceOnUse">
<stop stop-color="#2C50AA"/>
<stop offset="0.334905" stop-color="#274188"/>
<stop offset="0.707645" stop-color="#1F2B56"/>
<stop offset="1" stop-color="#1B2548"/>
</linearGradient>
<linearGradient id="paint11_linear_101_202" x1="95.6159" y1="-72.9927" x2="760.255" y2="290.731" gradientUnits="userSpaceOnUse">
<stop stop-color="#2C50AA"/>
<stop offset="0.334905" stop-color="#274188"/>
<stop offset="0.707645" stop-color="#1F2B56"/>
<stop offset="1" stop-color="#1B2548"/>
</linearGradient>
<linearGradient id="paint12_linear_101_202" x1="182.09" y1="-122.763" x2="743.752" y2="364.44" gradientUnits="userSpaceOnUse">
<stop stop-color="#2C50AA"/>
<stop offset="0.334905" stop-color="#274188"/>
<stop offset="0.707645" stop-color="#1F2B56"/>
<stop offset="1" stop-color="#1B2548"/>
</linearGradient>
<linearGradient id="paint13_linear_101_202" x1="96.3808" y1="-72.8187" x2="761.004" y2="290.898" gradientUnits="userSpaceOnUse">
<stop stop-color="#2C50AA"/>
<stop offset="0.334905" stop-color="#274188"/>
<stop offset="0.707645" stop-color="#1F2B56"/>
<stop offset="1" stop-color="#1B2548"/>
</linearGradient>
<linearGradient id="paint14_linear_101_202" x1="182.09" y1="-122.763" x2="743.753" y2="364.439" gradientUnits="userSpaceOnUse">
<stop stop-color="#2C50AA"/>
<stop offset="0.334905" stop-color="#274188"/>
<stop offset="0.707645" stop-color="#1F2B56"/>
<stop offset="1" stop-color="#1B2548"/>
</linearGradient>
<linearGradient id="paint15_linear_101_202" x1="96.566" y1="-72.6263" x2="761.187" y2="291.09" gradientUnits="userSpaceOnUse">
<stop stop-color="#2C50AA"/>
<stop offset="0.334905" stop-color="#274188"/>
<stop offset="0.707645" stop-color="#1F2B56"/>
<stop offset="1" stop-color="#1B2548"/>
</linearGradient>
<linearGradient id="paint16_linear_101_202" x1="1016.01" y1="515.86" x2="1016.01" y2="284.392" gradientUnits="userSpaceOnUse">
<stop stop-color="#5DFFFF"/>
<stop offset="1" stop-color="#00FFFF" stop-opacity="0.32"/>
</linearGradient>
<linearGradient id="paint17_linear_101_202" x1="1016.01" y1="505.568" x2="1016.01" y2="294.683" gradientUnits="userSpaceOnUse">
<stop stop-color="#5DFFFF"/>
<stop offset="1" stop-color="#00FFFF" stop-opacity="0.32"/>
</linearGradient>
<linearGradient id="paint18_linear_101_202" x1="871.691" y1="535.445" x2="871.691" y2="463.824" gradientUnits="userSpaceOnUse">
<stop stop-color="white"/>
<stop offset="1" stop-color="#CBDDFF" stop-opacity="0.32"/>
</linearGradient>
<linearGradient id="paint19_linear_101_202" x1="865.738" y1="538.63" x2="865.738" y2="441.978" gradientUnits="userSpaceOnUse">
<stop stop-color="white"/>
<stop offset="1" stop-color="#CBDDFF" stop-opacity="0.32"/>
</linearGradient>
<linearGradient id="paint20_linear_101_202" x1="885.477" y1="468.028" x2="885.477" y2="460.457" gradientUnits="userSpaceOnUse">
<stop stop-color="white"/>
<stop offset="1" stop-color="#CBDDFF" stop-opacity="0.32"/>
</linearGradient>
<linearGradient id="paint21_linear_101_202" x1="888.491" y1="446.183" x2="888.491" y2="438.612" gradientUnits="userSpaceOnUse">
<stop stop-color="white"/>
<stop offset="1" stop-color="#CBDDFF" stop-opacity="0.32"/>
</linearGradient>
<linearGradient id="paint22_linear_101_202" x1="909.254" y1="502.445" x2="909.254" y2="494.871" gradientUnits="userSpaceOnUse">
<stop stop-color="white"/>
<stop offset="1" stop-color="#CBDDFF" stop-opacity="0.32"/>
</linearGradient>
<linearGradient id="paint23_linear_101_202" x1="830.464" y1="633.711" x2="830.464" y2="626.139" gradientUnits="userSpaceOnUse">
<stop stop-color="white"/>
<stop offset="1" stop-color="#CBDDFF" stop-opacity="0.32"/>
</linearGradient>
<linearGradient id="paint24_linear_101_202" x1="810.997" y1="686.653" x2="810.997" y2="679.083" gradientUnits="userSpaceOnUse">
<stop stop-color="white"/>
<stop offset="1" stop-color="#CBDDFF" stop-opacity="0.32"/>
</linearGradient>
<linearGradient id="paint25_linear_101_202" x1="869.945" y1="683.264" x2="869.945" y2="486.052" gradientUnits="userSpaceOnUse">
<stop stop-color="white"/>
<stop offset="1" stop-color="#CBDDFF" stop-opacity="0.32"/>
</linearGradient>
<linearGradient id="paint26_linear_101_202" x1="869.859" y1="630.322" x2="869.859" y2="498.262" gradientUnits="userSpaceOnUse">
<stop stop-color="white"/>
<stop offset="1" stop-color="#CBDDFF" stop-opacity="0.32"/>
</linearGradient>
<linearGradient id="paint27_linear_101_202" x1="815.559" y1="731.875" x2="815.559" y2="534.663" gradientUnits="userSpaceOnUse">
<stop stop-color="white"/>
<stop offset="1" stop-color="#CBDDFF" stop-opacity="0.32"/>
</linearGradient>
<linearGradient id="paint28_linear_101_202" x1="799.212" y1="735.059" x2="799.212" y2="537.847" gradientUnits="userSpaceOnUse">
<stop stop-color="white"/>
<stop offset="1" stop-color="#CBDDFF" stop-opacity="0.32"/>
</linearGradient>
<linearGradient id="paint29_linear_101_202" x1="995.885" y1="586.078" x2="995.885" y2="540.874" gradientUnits="userSpaceOnUse">
<stop stop-color="white"/>
<stop offset="1" stop-color="#CBDDFF" stop-opacity="0.32"/>
</linearGradient>
<linearGradient id="paint30_linear_101_202" x1="1007.61" y1="601.333" x2="1007.61" y2="527.601" gradientUnits="userSpaceOnUse">
<stop stop-color="white"/>
<stop offset="1" stop-color="#CBDDFF" stop-opacity="0.32"/>
</linearGradient>
<linearGradient id="paint31_linear_101_202" x1="1024.88" y1="545.041" x2="1024.88" y2="537.467" gradientUnits="userSpaceOnUse">
<stop stop-color="white"/>
<stop offset="1" stop-color="#CBDDFF" stop-opacity="0.32"/>
</linearGradient>
<linearGradient id="paint32_linear_101_202" x1="1043.17" y1="531.77" x2="1043.17" y2="524.196" gradientUnits="userSpaceOnUse">
<stop stop-color="white"/>
<stop offset="1" stop-color="#CBDDFF" stop-opacity="0.32"/>
</linearGradient>
<linearGradient id="paint33_linear_101_202" x1="982.029" y1="542.063" x2="982.029" y2="534.489" gradientUnits="userSpaceOnUse">
<stop stop-color="white"/>
<stop offset="1" stop-color="#CBDDFF" stop-opacity="0.32"/>
</linearGradient>
<linearGradient id="paint34_linear_101_202" x1="901.985" y1="672.625" x2="901.985" y2="665.052" gradientUnits="userSpaceOnUse">
<stop stop-color="white"/>
<stop offset="1" stop-color="#CBDDFF" stop-opacity="0.32"/>
</linearGradient>
<linearGradient id="paint35_linear_101_202" x1="923.53" y1="711.592" x2="923.53" y2="515.42" gradientUnits="userSpaceOnUse">
<stop stop-color="white"/>
<stop offset="1" stop-color="#CBDDFF" stop-opacity="0.32"/>
</linearGradient>
<linearGradient id="paint36_linear_101_202" x1="942.007" y1="669.242" x2="942.007" y2="537.874" gradientUnits="userSpaceOnUse">
<stop stop-color="white"/>
<stop offset="1" stop-color="#CBDDFF" stop-opacity="0.32"/>
</linearGradient>
<linearGradient id="paint37_linear_101_202" x1="906.29" y1="781.053" x2="906.29" y2="584.879" gradientUnits="userSpaceOnUse">
<stop stop-color="white"/>
<stop offset="1" stop-color="#CBDDFF" stop-opacity="0.32"/>
</linearGradient>
<linearGradient id="paint38_linear_101_202" x1="911.451" y1="796.308" x2="911.451" y2="600.134" gradientUnits="userSpaceOnUse">
<stop stop-color="white"/>
<stop offset="1" stop-color="#CBDDFF" stop-opacity="0.32"/>
</linearGradient>
<linearGradient id="paint39_linear_101_202" x1="1160.4" y1="336.484" x2="1160.4" y2="264.863" gradientUnits="userSpaceOnUse">
<stop stop-color="white"/>
<stop offset="1" stop-color="#CBDDFF" stop-opacity="0.32"/>
</linearGradient>
<linearGradient id="paint40_linear_101_202" x1="1166.36" y1="358.331" x2="1166.36" y2="261.678" gradientUnits="userSpaceOnUse">
<stop stop-color="white"/>
<stop offset="1" stop-color="#CBDDFF" stop-opacity="0.32"/>
</linearGradient>
<linearGradient id="paint41_linear_101_202" x1="1146.62" y1="339.852" x2="1146.62" y2="332.28" gradientUnits="userSpaceOnUse">
<stop stop-color="white"/>
<stop offset="1" stop-color="#CBDDFF" stop-opacity="0.32"/>
</linearGradient>
<linearGradient id="paint42_linear_101_202" x1="1143.61" y1="361.697" x2="1143.61" y2="354.125" gradientUnits="userSpaceOnUse">
<stop stop-color="white"/>
<stop offset="1" stop-color="#CBDDFF" stop-opacity="0.32"/>
</linearGradient>
<linearGradient id="paint43_linear_101_202" x1="1122.84" y1="305.436" x2="1122.84" y2="297.862" gradientUnits="userSpaceOnUse">
<stop stop-color="white"/>
<stop offset="1" stop-color="#CBDDFF" stop-opacity="0.32"/>
</linearGradient>
<linearGradient id="paint44_linear_101_202" x1="1162.15" y1="314.256" x2="1162.15" y2="117.041" gradientUnits="userSpaceOnUse">
<stop stop-color="white"/>
<stop offset="1" stop-color="#CBDDFF" stop-opacity="0.32"/>
</linearGradient>
<linearGradient id="paint45_linear_101_202" x1="1162.24" y1="302.046" x2="1162.24" y2="169.985" gradientUnits="userSpaceOnUse">
<stop stop-color="white"/>
<stop offset="1" stop-color="#CBDDFF" stop-opacity="0.32"/>
</linearGradient>
<linearGradient id="paint46_linear_101_202" x1="1216.54" y1="265.645" x2="1216.54" y2="68.4323" gradientUnits="userSpaceOnUse">
<stop stop-color="white"/>
<stop offset="1" stop-color="#CBDDFF" stop-opacity="0.32"/>
</linearGradient>
<linearGradient id="paint47_linear_101_202" x1="1232.88" y1="262.461" x2="1232.88" y2="65.2486" gradientUnits="userSpaceOnUse">
<stop stop-color="white"/>
<stop offset="1" stop-color="#CBDDFF" stop-opacity="0.32"/>
</linearGradient>
<linearGradient id="paint48_linear_101_202" x1="1036.21" y1="259.433" x2="1036.21" y2="214.23" gradientUnits="userSpaceOnUse">
<stop stop-color="white"/>
<stop offset="1" stop-color="#CBDDFF" stop-opacity="0.32"/>
</linearGradient>
<linearGradient id="paint49_linear_101_202" x1="1024.48" y1="272.705" x2="1024.48" y2="198.975" gradientUnits="userSpaceOnUse">
<stop stop-color="white"/>
<stop offset="1" stop-color="#CBDDFF" stop-opacity="0.32"/>
</linearGradient>
<linearGradient id="paint50_linear_101_202" x1="1007.22" y1="262.839" x2="1007.22" y2="255.267" gradientUnits="userSpaceOnUse">
<stop stop-color="white"/>
<stop offset="1" stop-color="#CBDDFF" stop-opacity="0.32"/>
</linearGradient>
<linearGradient id="paint51_linear_101_202" x1="988.929" y1="276.111" x2="988.929" y2="268.537" gradientUnits="userSpaceOnUse">
<stop stop-color="white"/>
<stop offset="1" stop-color="#CBDDFF" stop-opacity="0.32"/>
</linearGradient>
<linearGradient id="paint52_linear_101_202" x1="900.734" y1="336.065" x2="900.734" y2="328.492" gradientUnits="userSpaceOnUse">
<stop stop-color="white"/>
<stop offset="1" stop-color="#CBDDFF" stop-opacity="0.32"/>
</linearGradient>
<linearGradient id="paint53_linear_101_202" x1="1050.07" y1="265.819" x2="1050.07" y2="258.245" gradientUnits="userSpaceOnUse">
<stop stop-color="white"/>
<stop offset="1" stop-color="#CBDDFF" stop-opacity="0.32"/>
</linearGradient>
<linearGradient id="paint54_linear_101_202" x1="1108.57" y1="284.888" x2="1108.57" y2="88.7164" gradientUnits="userSpaceOnUse">
<stop stop-color="white"/>
<stop offset="1" stop-color="#CBDDFF" stop-opacity="0.32"/>
</linearGradient>
<linearGradient id="paint55_linear_101_202" x1="1090.09" y1="262.436" x2="1090.09" y2="131.065" gradientUnits="userSpaceOnUse">
<stop stop-color="white"/>
<stop offset="1" stop-color="#CBDDFF" stop-opacity="0.32"/>
</linearGradient>
<linearGradient id="paint56_linear_101_202" x1="1125.81" y1="215.429" x2="1125.81" y2="19.257" gradientUnits="userSpaceOnUse">
<stop stop-color="white"/>
<stop offset="1" stop-color="#CBDDFF" stop-opacity="0.32"/>
</linearGradient>
<linearGradient id="paint57_linear_101_202" x1="1120.64" y1="200.173" x2="1120.64" y2="4" gradientUnits="userSpaceOnUse">
<stop stop-color="white"/>
<stop offset="1" stop-color="#CBDDFF" stop-opacity="0.32"/>
</linearGradient>
<linearGradient id="paint58_linear_101_202" x1="898.408" y1="380.76" x2="898.408" y2="291.37" gradientUnits="userSpaceOnUse">
<stop stop-color="white"/>
<stop offset="1" stop-color="#CBDDFF" stop-opacity="0.32"/>
</linearGradient>
<linearGradient id="paint59_linear_101_202" x1="1132.44" y1="468.029" x2="1132.44" y2="460.455" gradientUnits="userSpaceOnUse">
<stop stop-color="white"/>
<stop offset="1" stop-color="#CBDDFF" stop-opacity="0.32"/>
</linearGradient>
<linearGradient id="paint60_linear_101_202" x1="1130.11" y1="512.724" x2="1130.11" y2="423.333" gradientUnits="userSpaceOnUse">
<stop stop-color="white"/>
<stop offset="1" stop-color="#CBDDFF" stop-opacity="0.32"/>
</linearGradient>
<linearGradient id="paint61_linear_101_202" x1="1247.47" y1="473.063" x2="1247.47" y2="62.0745" gradientUnits="userSpaceOnUse">
<stop stop-color="white"/>
<stop offset="1" stop-color="#CBDDFF" stop-opacity="0.32"/>
</linearGradient>
<linearGradient id="paint62_linear_101_202" x1="1156.94" y1="491.729" x2="1156.94" y2="469.62" gradientUnits="userSpaceOnUse">
<stop stop-color="white"/>
<stop offset="1" stop-color="#CBDDFF" stop-opacity="0.32"/>
</linearGradient>
<linearGradient id="paint63_linear_101_202" x1="786.759" y1="738.232" x2="786.759" y2="327.246" gradientUnits="userSpaceOnUse">
<stop stop-color="white"/>
<stop offset="1" stop-color="#CBDDFF" stop-opacity="0.32"/>
</linearGradient>
<linearGradient id="paint64_linear_101_202" x1="877.289" y1="330.687" x2="877.289" y2="308.577" gradientUnits="userSpaceOnUse">
<stop stop-color="white"/>
<stop offset="1" stop-color="#CBDDFF" stop-opacity="0.32"/>
</linearGradient>
<linearGradient id="paint65_linear_101_202" x1="913.191" y1="278.168" x2="913.191" y2="244.949" gradientUnits="userSpaceOnUse">
<stop stop-color="white"/>
<stop offset="1" stop-color="#CBDDFF" stop-opacity="0.32"/>
</linearGradient>
<linearGradient id="paint66_linear_101_202" x1="1066.29" y1="554.683" x2="1066.29" y2="535.399" gradientUnits="userSpaceOnUse">
<stop stop-color="white"/>
<stop offset="1" stop-color="#CBDDFF" stop-opacity="0.32"/>
</linearGradient>
<linearGradient id="paint67_linear_101_202" x1="1045.6" y1="179.59" x2="1045.6" y2="156.707" gradientUnits="userSpaceOnUse">
<stop stop-color="white"/>
<stop offset="1" stop-color="#CBDDFF" stop-opacity="0.32"/>
</linearGradient>
<linearGradient id="paint68_linear_101_202" x1="913.192" y1="579.386" x2="913.192" y2="556.502" gradientUnits="userSpaceOnUse">
<stop stop-color="white"/>
<stop offset="1" stop-color="#CBDDFF" stop-opacity="0.32"/>
</linearGradient>
<linearGradient id="paint69_linear_101_202" x1="1114.42" y1="534.49" x2="1114.42" y2="520.329" gradientUnits="userSpaceOnUse">
<stop stop-color="white"/>
<stop offset="1" stop-color="#CBDDFF" stop-opacity="0.32"/>
</linearGradient>
</defs>
</svg>
