<svg width="234" height="234" viewBox="0 0 234 234" fill="none" xmlns="http://www.w3.org/2000/svg">
<path d="M27.4311 89.7567C27.4311 91.9209 29.1856 93.6754 31.3499 93.6754C33.5141 93.6754 35.2686 91.9209 35.2686 89.7567H27.4311ZM73.266 50.6562C75.4302 50.6562 77.1847 48.9018 77.1847 46.7375C77.1847 44.5732 75.4302 42.8187 73.266 42.8187V50.6562ZM35.2686 89.7567V66.5925H27.4311V89.7567H35.2686ZM51.2049 50.6562H73.266V42.8187H51.2049V50.6562ZM35.2686 66.5925C35.2686 57.7912 42.4035 50.6562 51.2049 50.6562V42.8187C38.075 42.8187 27.4311 53.4626 27.4311 66.5925H35.2686Z" fill="#020F29"/>
<path d="M27.4311 153.734C27.4311 151.57 29.1856 149.816 31.3499 149.816C33.5141 149.816 35.2686 151.57 35.2686 153.734H27.4311ZM73.266 192.835C75.4302 192.835 77.1847 194.589 77.1847 196.753C77.1847 198.918 75.4302 200.672 73.266 200.672V192.835ZM35.2686 153.734V176.898H27.4311V153.734H35.2686ZM51.2049 192.835H73.266V200.672H51.2049V192.835ZM35.2686 176.898C35.2686 185.7 42.4035 192.835 51.2049 192.835V200.672C38.075 200.672 27.4311 190.028 27.4311 176.898H35.2686Z" fill="#020F29"/>
<path d="M184.181 89.7567C184.181 91.9209 182.426 93.6754 180.262 93.6754C178.098 93.6754 176.343 91.9209 176.343 89.7567H184.181ZM138.346 50.6562C136.182 50.6562 134.427 48.9018 134.427 46.7375C134.427 44.5732 136.182 42.8187 138.346 42.8187V50.6562ZM176.343 89.7567V66.5925H184.181V89.7567H176.343ZM160.407 50.6562H138.346V42.8187H160.407V50.6562ZM176.343 66.5925C176.343 57.7912 169.209 50.6562 160.407 50.6562V42.8187C173.537 42.8187 184.181 53.4626 184.181 66.5925H176.343Z" fill="#020F29"/>
<path d="M184.181 153.734C184.181 151.57 182.426 149.816 180.262 149.816C178.098 149.816 176.343 151.57 176.343 153.734H184.181ZM138.346 192.835C136.182 192.835 134.427 194.589 134.427 196.753C134.427 198.918 136.182 200.672 138.346 200.672V192.835ZM176.343 153.734V176.898H184.181V153.734H176.343ZM160.407 192.835H138.346V200.672H160.407V192.835ZM176.343 176.898C176.343 185.7 169.209 192.835 160.407 192.835V200.672C173.537 200.672 184.181 190.028 184.181 176.898H176.343Z" fill="#020F29"/>
<path d="M132.216 156.908C134.194 156.029 135.085 153.713 134.206 151.735C133.327 149.758 131.011 148.867 129.033 149.746L132.216 156.908ZM82.5789 149.746C80.6011 148.867 78.2853 149.758 77.4063 151.735C76.5273 153.713 77.418 156.029 79.3957 156.908L82.5789 149.746ZM79.3957 156.908L82.7108 158.381L85.8939 151.219L82.5789 149.746L79.3957 156.908ZM128.901 158.381L132.216 156.908L129.033 149.746L125.718 151.219L128.901 158.381ZM82.7108 158.381C97.4143 164.916 114.198 164.916 128.901 158.381L125.718 151.219C113.041 156.854 98.5709 156.854 85.8939 151.219L82.7108 158.381Z" fill="#020F29"/>
<path d="M113.005 98.1743C113.005 96.01 111.251 94.2555 109.086 94.2555C106.922 94.2555 105.168 96.01 105.168 98.1743H113.005ZM97.8233 130.916C95.7062 131.365 94.3539 133.445 94.803 135.562C95.2521 137.68 97.3325 139.032 99.4496 138.583L97.8233 130.916ZM105.168 98.1743V125.384H113.005V98.1743H105.168ZM101.28 130.183L97.8233 130.916L99.4496 138.583L102.906 137.85L101.28 130.183ZM105.168 125.384C105.168 127.701 103.547 129.702 101.28 130.183L102.906 137.85C108.794 136.601 113.005 131.402 113.005 125.384H105.168Z" fill="#020F29"/>
<path d="M78.2879 98.1743C78.2879 96.01 76.5334 94.2555 74.3691 94.2555C72.2049 94.2555 70.4504 96.01 70.4504 98.1743L78.2879 98.1743ZM70.4504 111.237C70.4504 113.401 72.2049 115.156 74.3691 115.156C76.5334 115.156 78.2879 113.401 78.2879 111.237L70.4504 111.237ZM70.4504 98.1743L70.4504 111.237L78.2879 111.237L78.2879 98.1743L70.4504 98.1743Z" fill="#020F29"/>
<path d="M142.265 98.1743C142.265 96.01 140.511 94.2555 138.347 94.2555C136.182 94.2555 134.428 96.01 134.428 98.1743L142.265 98.1743ZM134.428 111.237C134.428 113.401 136.182 115.156 138.347 115.156C140.511 115.156 142.265 113.401 142.265 111.237L134.428 111.237ZM134.428 98.1743L134.428 111.237L142.265 111.237L142.265 98.1743L134.428 98.1743Z" fill="#020F29"/>
</svg>
