<svg width="68" height="68" viewBox="0 0 68 68" fill="none" xmlns="http://www.w3.org/2000/svg">
<path d="M31.1666 42.5C31.1666 42.1243 31.0174 41.7639 30.7517 41.4983C30.486 41.2326 30.1257 41.0833 29.75 41.0833H22.3125C21.9851 41.0835 21.6679 41.1971 21.4148 41.4048C21.1617 41.6124 20.9883 41.9013 20.9241 42.2223L19.8617 47.5348C19.8068 47.8095 19.8347 48.0943 19.9416 48.3531C20.0486 48.612 20.2299 48.8333 20.4626 48.9892C20.6953 49.145 20.969 49.2284 21.2491 49.2287C21.5292 49.2291 21.8031 49.1464 22.0362 48.9912C22.3337 48.7928 23.6555 48.1667 25.5 48.1667C26.2514 48.1667 26.9721 48.4652 27.5035 48.9965C28.0348 49.5279 28.3333 50.2486 28.3333 51C28.3333 51.7514 28.0348 52.4721 27.5035 53.0035C26.9721 53.5348 26.2514 53.8333 25.5 53.8333H24.3213C23.5039 53.8333 22.8281 53.3233 22.5831 52.6433C22.4553 52.2898 22.1924 52.0014 21.852 51.8418C21.5117 51.6821 21.1219 51.6642 20.7683 51.7919C20.4148 51.9197 20.1264 52.1826 19.9668 52.523C19.8071 52.8633 19.7892 53.2531 19.9169 53.6067C20.248 54.5078 20.8487 55.2851 21.6373 55.8326C22.4259 56.3802 23.3641 56.6714 24.3241 56.6667H25.5C27.0029 56.6667 28.4442 56.0696 29.5069 55.0069C30.5696 53.9442 31.1666 52.5029 31.1666 51C31.1666 49.4971 30.5696 48.0558 29.5069 46.9931C28.4442 45.9304 27.0029 45.3333 25.5 45.3333C24.7062 45.3334 23.9149 45.4198 23.1398 45.5912L23.4741 43.9167H29.75C30.1257 43.9167 30.486 43.7674 30.7517 43.5017C31.0174 43.2361 31.1666 42.8757 31.1666 42.5ZM46.4001 45.0132C46.524 44.8744 46.6193 44.7126 46.6807 44.5369C46.7421 44.3613 46.7682 44.1753 46.7577 43.9895C46.7472 43.8038 46.7002 43.6219 46.6194 43.4543C46.5385 43.2868 46.4255 43.1367 46.2867 43.0128C45.165 42.0097 43.7768 41.3526 42.2899 41.121C40.8029 40.8893 39.2807 41.093 37.907 41.7075C36.5332 42.3219 35.3667 43.3208 34.5481 44.5836C33.7296 45.8464 33.294 47.3191 33.294 48.824C33.294 50.3289 33.7296 51.8016 34.5481 53.0644C35.3667 54.3272 36.5332 55.3261 37.907 55.9405C39.2807 56.555 40.8029 56.7586 42.2899 56.527C43.7768 56.2954 45.165 55.6383 46.2867 54.6352C46.4354 54.5024 46.5544 54.3398 46.6359 54.1579C46.7175 53.9761 46.7597 53.7791 46.7599 53.5797V48.824C46.7599 48.4483 46.6106 48.0879 46.345 47.8223C46.0793 47.5566 45.719 47.4073 45.3432 47.4073H41.0904C40.7147 47.4073 40.3543 47.5566 40.0887 47.8223C39.823 48.0879 39.6737 48.4483 39.6737 48.824C39.6737 49.1997 39.823 49.5601 40.0887 49.8257C40.3543 50.0914 40.7147 50.2407 41.0904 50.2407H43.9266V52.8969C43.1612 53.4301 42.2612 53.7368 41.3295 53.782C40.3978 53.8272 39.4723 53.609 38.659 53.1523C37.8456 52.6957 37.1774 52.0192 36.7309 51.2003C36.2843 50.3814 36.0776 49.4532 36.1342 48.5222C36.1909 47.5912 36.5088 46.6949 37.0514 45.9362C37.5939 45.1776 38.3393 44.5871 39.202 44.2325C40.0648 43.8779 41.0099 43.7736 41.9292 43.9315C42.8485 44.0893 43.7047 44.503 44.3997 45.1251C44.6798 45.3755 45.0479 45.5044 45.4231 45.4834C45.7982 45.4624 46.1496 45.2933 46.4001 45.0132Z" fill="#031D51"/>
<path fill-rule="evenodd" clip-rule="evenodd" d="M0 0H68V68H0V0ZM14.1667 41.0833C14.1667 39.9562 14.6144 38.8752 15.4115 38.0781C16.2085 37.2811 17.2895 36.8333 18.4167 36.8333H49.5833C50.7105 36.8333 51.7915 37.2811 52.5885 38.0781C53.3856 38.8752 53.8333 39.9562 53.8333 41.0833V58.0833C53.8333 59.2105 53.3856 60.2915 52.5885 61.0885C51.7915 61.8856 50.7105 62.3333 49.5833 62.3333H18.4167C17.2895 62.3333 16.2085 61.8856 15.4115 61.0885C14.6144 60.2915 14.1667 59.2105 14.1667 58.0833V41.0833ZM46.0204 7.81292C49.2079 11.0012 50.9986 15.325 50.9986 19.8333C50.9986 24.3417 49.2079 28.6655 46.0204 31.8538L48.025 33.8583C51.7446 30.1386 53.8342 25.0937 53.8342 19.8333C53.8342 14.573 51.7446 9.52805 48.025 5.80833L46.0204 7.81292ZM41.8526 16.5807C41.4257 15.5493 40.7999 14.612 40.0109 13.8224L42.0141 11.8193C43.0665 12.8717 43.9014 14.1211 44.471 15.4961C45.0406 16.8712 45.3337 18.345 45.3337 19.8333C45.3337 21.3217 45.0406 22.7955 44.471 24.1705C43.9014 25.5456 43.0665 26.795 42.0141 27.8474L40.0109 25.8442C41.1999 24.6553 42.0095 23.1403 42.3373 21.4911C42.6651 19.8419 42.4964 18.1326 41.8526 16.5793V16.5807ZM26.1474 16.5807C26.5743 15.5493 27.2001 14.612 27.9891 13.8224L25.9859 11.8193C24.9335 12.8717 24.0986 14.1211 23.529 15.4961C22.9594 16.8712 22.6663 18.345 22.6663 19.8333C22.6663 21.3217 22.9594 22.7955 23.529 24.1705C24.0986 25.5456 24.9335 26.795 25.9859 27.8474L27.9891 25.8442C26.8001 24.6553 25.9905 23.1403 25.6627 21.4911C25.3349 19.8419 25.5036 18.1326 26.1474 16.5793V16.5807ZM21.9796 7.8115C18.7916 10.9998 17.0007 15.3239 17.0007 19.8326C17.0007 24.3413 18.7916 28.6654 21.9796 31.8538L19.975 33.8583C16.2554 30.1386 14.1658 25.0937 14.1658 19.8333C14.1658 14.573 16.2554 9.52805 19.975 5.80833L21.9796 7.81292V7.8115ZM34 22.6667C34.7514 22.6667 35.4721 22.3682 36.0035 21.8368C36.5348 21.3054 36.8333 20.5848 36.8333 19.8333C36.8333 19.0819 36.5348 18.3612 36.0035 17.8299C35.4721 17.2985 34.7514 17 34 17C33.2486 17 32.5279 17.2985 31.9965 17.8299C31.4652 18.3612 31.1667 19.0819 31.1667 19.8333C31.1667 20.5848 31.4652 21.3054 31.9965 21.8368C32.5279 22.3682 33.2486 22.6667 34 22.6667Z" fill="#031D51"/>
</svg>
