<svg width="84" height="80" viewBox="0 0 84 80" fill="none" xmlns="http://www.w3.org/2000/svg">
<g clip-path="url(#clip0_200_392)">
<path d="M8.7196 8.79248H75.2908V71.2075H8.7196V8.79248Z" fill="#031D51"/>
<path d="M8.71959 8.7925H75.2908V71.2075H8.71959V8.7925ZM5.6875 74.125H78.3125V5.875H5.6875V74.125ZM53.2569 30.2C53.2569 29.9675 53.3477 29.85 53.62 29.85H58.3717C58.613 29.85 58.7349 29.9375 58.7349 30.2V53.2125C58.7349 53.445 58.6752 53.5625 58.3717 53.5625H53.6848C53.3814 53.5625 53.2906 53.4175 53.2906 53.1825V30.2H53.2595H53.2569ZM52.9249 23.58C52.9249 22.791 53.2501 22.0343 53.8289 21.4764C54.4078 20.9184 55.1928 20.605 56.0114 20.605C56.83 20.605 57.6151 20.9184 58.194 21.4764C58.7728 22.0343 59.098 22.791 59.098 23.58C59.1279 23.9831 59.0666 24.3876 58.9182 24.7655C58.7698 25.1434 58.5379 25.4858 58.2387 25.7688C57.9394 26.0517 57.5798 26.2686 57.185 26.4044C56.7901 26.5402 56.3693 26.5915 55.9518 26.555C55.5427 26.5797 55.1329 26.5192 54.7503 26.3776C54.3676 26.2359 54.0211 26.0165 53.7344 25.7342C53.4477 25.4519 53.2274 25.1133 53.0886 24.7416C52.9498 24.3699 52.8957 23.9737 52.9301 23.58H52.9249ZM39.3077 39.7975C38.4595 36.5475 36.4546 29.5025 35.7076 26.09H35.6479C35.0124 29.5025 33.4095 35.2775 32.1386 39.7975H39.3077ZM30.8962 44.5225L28.5047 53.2725C28.4451 53.505 28.3543 53.565 28.0508 53.565H23.6077C23.3043 53.565 23.2446 53.4775 23.3042 53.1275L31.8973 24.1275C32.1065 23.3368 32.2085 22.5234 32.2008 21.7075C32.2008 21.5025 32.2916 21.415 32.442 21.415H38.7967C39.0094 21.415 39.1002 21.4725 39.1598 21.7075L48.7827 53.1775C48.8423 53.41 48.7827 53.5575 48.5414 53.5575H43.5173C43.2761 53.5575 43.1231 53.5 43.0634 53.3075L40.5812 44.5275H30.8988L30.8962 44.5225Z" fill="#FAFCFF"/>
<path d="M83 10C83 13.8488 79.7576 17 75.7188 17C71.6799 17 68.4375 13.8488 68.4375 10C68.4375 6.1512 71.6799 3 75.7188 3C79.7576 3 83 6.1512 83 10Z" fill="#031D51" stroke="white"/>
</g>
<defs>
<clipPath id="clip0_200_392">
<rect width="83" height="80" fill="white" transform="translate(0.5)"/>
</clipPath>
</defs>
</svg>
