<svg width="1337" height="839" viewBox="0 0 1337 839" fill="none" xmlns="http://www.w3.org/2000/svg">
<rect y="18.4615" width="1336" height="820" fill="#020F29"/>
<path d="M720.701 550.207L719.986 549.809L719.753 550.199L703.397 521.659L728.937 482.114C729.334 482.481 729.811 482.771 730.34 482.953L705.311 521.707L721.425 549.824L720.701 550.207" fill="url(#paint0_linear_101_202)"/>
<path d="M950.119 166.549L949.465 166.046L949.751 165.692L916.077 161.288L887.707 198.869C888.211 199.094 888.671 199.421 889.047 199.834L916.849 163.005L950.025 167.345L950.119 166.549" fill="url(#paint1_linear_101_202)"/>
<path d="M704.354 553.39L703.638 552.993L703.404 553.384L688.477 527.581L740.233 447.445C740.395 448.189 740.562 448.944 740.73 449.687L690.394 527.624L705.076 553.004L704.354 553.39" fill="url(#paint2_linear_101_202)"/>
<path d="M946.814 150.779L946.16 150.273L946.446 149.918L915.966 145.727L858.754 221.803C859.53 221.68 860.319 221.558 861.096 221.442L916.739 147.452L946.719 151.575L946.814 150.779" fill="url(#paint3_linear_101_202)"/>
<path d="M731.67 483.174C731.203 483.174 730.755 483.096 730.34 482.953C729.811 482.77 729.334 482.481 728.937 482.114C728.195 481.424 727.734 480.459 727.734 479.388C727.734 477.298 729.496 475.604 731.67 475.604C733.845 475.604 735.606 477.298 735.606 479.388C735.606 481.48 733.845 483.174 731.67 483.174" fill="url(#paint4_linear_101_202)"/>
<path d="M889.468 200.973C889.29 200.551 889.045 200.175 888.751 199.852C888.375 199.44 887.917 199.114 887.416 198.888C886.474 198.467 885.377 198.398 884.353 198.784C882.355 199.538 881.406 201.738 882.232 203.701C883.059 205.664 885.348 206.644 887.346 205.89C889.345 205.137 890.295 202.936 889.468 200.973" fill="url(#paint5_linear_101_202)"/>
<path d="M755.447 517.591C755.026 517.591 754.619 517.526 754.239 517.409L756.163 514.203L754.732 513.408L752.808 516.614C752.012 515.921 751.511 514.92 751.511 513.805C751.511 511.714 753.274 510.019 755.447 510.019C757.622 510.019 759.385 511.714 759.385 513.805C759.385 515.896 757.622 517.591 755.447 517.591" fill="url(#paint6_linear_101_202)"/>
<path d="M931.521 209.47C931.361 209.09 931.144 208.747 930.887 208.446L928.554 211.337L927.251 210.332L929.584 207.441C928.618 206.971 927.471 206.88 926.406 207.282C924.407 208.036 923.458 210.238 924.284 212.199C925.111 214.162 927.4 215.143 929.399 214.389C931.397 213.636 932.348 211.433 931.521 209.47" fill="url(#paint7_linear_101_202)"/>
<path d="M658.553 697.334H656.645L658.4 694.41L765.434 516.09C765.735 516.655 766.029 517.205 766.335 517.77L659.831 695.205L658.553 697.334" fill="url(#paint8_linear_101_202)"/>
<path d="M1068.14 56.3729L1067.41 54.6426L1065.27 57.2921L935.025 218.898C935.683 218.966 936.323 219.033 936.98 219.106L1066.58 58.3016L1068.14 56.3729" fill="url(#paint9_linear_101_202)"/>
<path d="M677.373 645.469L675.942 644.674L677.865 641.466L752.808 516.614L754.732 513.408L756.163 514.203L754.239 517.409L679.296 642.263L677.373 645.469" fill="url(#paint10_linear_101_202)"/>
<path d="M1025.32 92.3764L1024.01 91.3668L1021.67 94.2719L930.478 207.419L928.136 210.324L929.444 211.333L931.786 208.429L1022.98 95.2807L1025.32 92.3764" fill="url(#paint11_linear_101_202)"/>
<path d="M633.345 697.334H631.437L719.753 550.199L719.986 549.809L720.701 550.207L721.417 550.604L633.345 697.334" fill="url(#paint12_linear_101_202)"/>
<path d="M1059.03 33.8564L1058.3 32.1262L950.835 165.46L950.55 165.813L951.204 166.317L951.858 166.822L1059.03 33.8564" fill="url(#paint13_linear_101_202)"/>
<path d="M618.909 697.334H617L703.404 553.384L703.639 552.993L704.354 553.39L705.07 553.788L618.909 697.334" fill="url(#paint14_linear_101_202)"/>
<path d="M1053.7 20.9609L1052.98 19.2308L947.839 149.678L947.553 150.032L948.207 150.537L948.861 151.042L1053.7 20.9609" fill="url(#paint15_linear_101_202)"/>
<g filter="url(#filter0_di_101_202)">
<path d="M1085 281.187V280.392H946.541L877.074 396.126L946.541 511.86H1085.48L1154.95 396.126L1085.48 280.392H1085V281.187L1084.28 281.584L1153.04 396.126L1084.52 510.271H947.496L878.981 396.126L947.496 281.981H1085V281.187L1084.28 281.584L1085 281.187Z" fill="url(#paint16_linear_101_202)"/>
</g>
<g filter="url(#filter1_di_101_202)">
<path d="M1077.39 293.862V290.683H952.719L889.43 396.126L952.719 501.568H1079.3L1142.59 396.126L1079.3 290.683H1077.39V293.862L1074.53 295.452L1134.96 396.126L1075.48 495.211H956.535L897.061 396.126L956.535 297.041H1077.39V293.862L1074.53 295.452L1077.39 293.862" fill="url(#paint17_linear_101_202)"/>
</g>
<path d="M884.775 459.824L857.204 502.513L873.784 531.445L875.232 530.677L859.119 502.56L886.179 460.662L884.775 459.824Z" fill="url(#paint18_linear_101_202)"/>
<path d="M887.788 437.978L842.284 508.434L857.44 534.63L858.882 533.857L844.201 508.479L889.193 438.816L887.788 437.978Z" fill="url(#paint19_linear_101_202)"/>
<path d="M889.413 460.243C889.413 462.334 887.65 464.028 885.477 464.028C883.302 464.028 881.541 462.334 881.541 460.243C881.541 458.152 883.302 456.457 885.477 456.457C887.65 456.457 889.413 458.152 889.413 460.243Z" fill="url(#paint20_linear_101_202)"/>
<path d="M892.427 438.397C892.427 440.488 890.664 442.183 888.491 442.183C886.318 442.183 884.555 440.488 884.555 438.397C884.555 436.307 886.318 434.612 888.491 434.612C890.664 434.612 892.427 436.307 892.427 438.397Z" fill="url(#paint21_linear_101_202)"/>
<path d="M913.19 494.659C913.19 496.749 911.428 498.445 909.254 498.445C907.081 498.445 905.319 496.749 905.319 494.659C905.319 492.567 907.081 490.871 909.254 490.871C911.428 490.871 913.19 492.567 913.19 494.659Z" fill="url(#paint22_linear_101_202)"/>
<path d="M834.4 625.925C834.4 628.015 832.637 629.711 830.464 629.711C828.289 629.711 826.528 628.015 826.528 625.925C826.528 623.833 828.289 622.139 830.464 622.139C832.637 622.139 834.4 623.833 834.4 625.925Z" fill="url(#paint23_linear_101_202)"/>
<path d="M814.933 678.867C814.933 680.958 813.171 682.653 810.997 682.653C808.824 682.653 807.06 680.958 807.06 678.867C807.06 676.777 808.824 675.083 810.997 675.083C813.171 675.083 814.933 676.777 814.933 678.867Z" fill="url(#paint24_linear_101_202)"/>
<path d="M811.712 679.264L929.609 482.847L928.178 482.052L810.281 678.47" fill="url(#paint25_linear_101_202)"/>
<path d="M831.179 626.322L909.969 495.057L908.538 494.262L829.748 625.527" fill="url(#paint26_linear_101_202)"/>
<path d="M757.326 727.875L875.223 531.457L873.792 530.663L755.895 727.08" fill="url(#paint27_linear_101_202)"/>
<path d="M740.978 731.059L858.877 534.641L857.446 533.847L739.547 730.264" fill="url(#paint28_linear_101_202)"/>
<path d="M1024.15 536.874L999.544 580.148L966.168 580.488L966.186 582.078L1000.53 581.728L1025.6 537.637L1024.15 536.874" fill="url(#paint29_linear_101_202)"/>
<path d="M1042.44 523.601L1001.53 595.551L971.332 595.744L971.344 597.333L1002.51 597.136L1043.89 524.364L1042.44 523.601Z" fill="url(#paint30_linear_101_202)"/>
<path d="M1022.94 533.958C1021.05 534.987 1020.38 537.297 1021.45 539.118C1022.52 540.938 1024.92 541.579 1026.81 540.55C1028.71 539.52 1029.38 537.211 1028.3 535.393C1027.24 533.571 1024.83 532.929 1022.94 533.958Z" fill="url(#paint31_linear_101_202)"/>
<path d="M1041.23 520.688C1039.34 521.714 1038.67 524.025 1039.74 525.845C1040.81 527.667 1043.21 528.309 1045.1 527.279C1047 526.251 1047.66 523.941 1046.6 522.12C1045.52 520.3 1043.12 519.658 1041.23 520.688" fill="url(#paint32_linear_101_202)"/>
<path d="M980.093 530.979C978.2 532.009 977.534 534.319 978.601 536.14C979.672 537.96 982.073 538.601 983.965 537.572C985.859 536.542 986.525 534.233 985.457 532.414C984.386 530.593 981.985 529.951 980.093 530.979Z" fill="url(#paint33_linear_101_202)"/>
<path d="M900.048 661.542C898.156 662.571 897.488 664.882 898.559 666.7C899.627 668.521 902.028 669.164 903.921 668.134C905.813 667.105 906.481 664.796 905.412 662.974C904.343 661.155 901.942 660.514 900.048 661.542" fill="url(#paint34_linear_101_202)"/>
<path d="M864.356 707.592L984.129 512.227L982.706 511.42L862.932 706.785" fill="url(#paint35_linear_101_202)"/>
<path d="M902.697 665.242L982.741 534.681L981.318 533.874L901.272 664.434" fill="url(#paint36_linear_101_202)"/>
<path d="M847.115 777.053L966.888 581.687L965.466 580.879L845.693 776.245" fill="url(#paint37_linear_101_202)"/>
<path d="M852.276 792.308L972.049 596.942L970.626 596.134L850.853 791.5" fill="url(#paint38_linear_101_202)"/>
<path d="M1147.32 332.484L1174.89 289.795L1158.31 260.863L1156.86 261.631L1172.98 289.748L1145.92 331.647L1147.32 332.484Z" fill="url(#paint39_linear_101_202)"/>
<path d="M1144.31 354.331L1189.81 283.873L1174.66 257.678L1173.21 258.452L1187.9 283.83L1142.9 353.491L1144.31 354.331Z" fill="url(#paint40_linear_101_202)"/>
<path d="M1142.68 332.066C1142.68 329.974 1144.45 328.28 1146.62 328.28C1148.79 328.28 1150.56 329.974 1150.56 332.066C1150.56 334.156 1148.79 335.852 1146.62 335.852C1144.45 335.852 1142.68 334.156 1142.68 332.066Z" fill="url(#paint41_linear_101_202)"/>
<path d="M1139.67 353.911C1139.67 351.819 1141.43 350.125 1143.61 350.125C1145.78 350.125 1147.54 351.819 1147.54 353.911C1147.54 356.003 1145.78 357.697 1143.61 357.697C1141.43 357.697 1139.67 356.003 1139.67 353.911Z" fill="url(#paint42_linear_101_202)"/>
<path d="M1118.9 297.648C1118.9 295.558 1120.67 293.862 1122.84 293.862C1125.02 293.862 1126.78 295.558 1126.78 297.648C1126.78 299.74 1125.02 301.436 1122.84 301.436C1120.67 301.436 1118.9 299.74 1118.9 297.648Z" fill="url(#paint43_linear_101_202)"/>
<path d="M1220.38 113.041L1102.49 309.461L1103.92 310.256L1221.81 113.836" fill="url(#paint44_linear_101_202)"/>
<path d="M1200.92 165.985L1122.13 297.251L1123.56 298.046L1202.35 166.78" fill="url(#paint45_linear_101_202)"/>
<path d="M1274.77 64.4323L1156.87 260.85L1158.3 261.645L1276.2 65.227" fill="url(#paint46_linear_101_202)"/>
<path d="M1291.12 61.2486L1173.22 257.667L1174.65 258.461L1292.55 62.0433" fill="url(#paint47_linear_101_202)"/>
<path d="M1007.94 255.433L1032.55 212.158L1065.93 211.819L1065.91 210.23L1031.57 210.579L1006.49 254.67L1007.94 255.433Z" fill="url(#paint48_linear_101_202)"/>
<path d="M989.654 268.705L1030.57 196.757L1060.76 196.564L1060.75 194.975L1029.58 195.173L988.205 267.944L989.654 268.705" fill="url(#paint49_linear_101_202)"/>
<path d="M1009.15 258.348C1011.05 257.32 1011.71 255.01 1010.64 253.19C1009.57 251.371 1007.17 250.728 1005.28 251.757C1003.39 252.785 1002.72 255.095 1003.79 256.916C1004.86 258.736 1007.26 259.378 1009.15 258.348" fill="url(#paint50_linear_101_202)"/>
<path d="M990.866 271.62C992.758 270.591 993.425 268.282 992.355 266.462C991.285 264.641 988.884 263.999 986.991 265.028C985.1 266.057 984.433 268.366 985.502 270.186C986.571 272.008 988.974 272.65 990.866 271.62Z" fill="url(#paint51_linear_101_202)"/>
<path d="M902.671 331.575C904.565 330.547 905.231 328.236 904.16 326.416C903.092 324.596 900.691 323.954 898.798 324.982C896.906 326.01 896.238 328.321 897.307 330.141C898.376 331.963 900.779 332.603 902.671 331.575Z" fill="url(#paint52_linear_101_202)"/>
<path d="M1052 261.328C1053.9 260.298 1054.56 257.989 1053.49 256.169C1052.42 254.349 1050.02 253.707 1048.13 254.735C1046.24 255.764 1045.57 258.073 1046.64 259.895C1047.71 261.715 1050.11 262.357 1052 261.328Z" fill="url(#paint53_linear_101_202)"/>
<path d="M1167.74 84.7164L1047.97 280.081L1049.39 280.888L1169.16 85.5239" fill="url(#paint54_linear_101_202)"/>
<path d="M1129.4 127.065L1049.36 257.628L1050.78 258.436L1130.82 127.873" fill="url(#paint55_linear_101_202)"/>
<path d="M1184.98 15.257L1065.21 210.621L1066.63 211.429L1186.4 16.0645" fill="url(#paint56_linear_101_202)"/>
<path d="M1179.82 8.94315e-06L1060.04 195.366L1061.47 196.173L1181.24 0.807449" fill="url(#paint57_linear_101_202)"/>
<path d="M924.282 287.37L871.102 375.966L872.533 376.76L925.713 288.164" fill="url(#paint58_linear_101_202)"/>
<path d="M1134.37 463.539C1136.27 462.509 1136.93 460.199 1135.86 458.379C1134.8 456.558 1132.39 455.917 1130.5 456.946C1128.61 457.976 1127.94 460.285 1129.01 462.103C1130.08 463.925 1132.48 464.567 1134.37 463.539Z" fill="url(#paint59_linear_101_202)"/>
<path d="M1155.99 419.333L1102.81 507.929L1104.24 508.724L1157.42 420.128" fill="url(#paint60_linear_101_202)"/>
<path d="M1164.44 469.063L1247.49 321.17L1220.2 253.782L1336.32 61.2661L1330.61 58.0745L1212.88 253.238L1240.22 320.736L1158.62 466.042L1164.44 469.063" fill="url(#paint61_linear_101_202)"/>
<path d="M1165.13 476.675H1161.83C1161.82 477.983 1161.28 479.137 1160.39 479.997C1159.5 480.852 1158.3 481.37 1156.94 481.373C1155.58 481.372 1154.38 480.852 1153.49 479.997C1152.6 479.137 1152.06 477.983 1152.06 476.675C1152.06 475.368 1152.6 474.215 1153.49 473.355C1154.38 472.5 1155.58 471.98 1156.94 471.978C1158.3 471.98 1159.5 472.5 1160.39 473.355C1161.28 474.215 1161.82 475.368 1161.83 476.675H1165.13H1168.44C1168.43 470.568 1163.29 465.624 1156.94 465.62C1150.59 465.624 1145.45 470.57 1145.45 476.675C1145.45 482.783 1150.59 487.728 1156.94 487.729C1163.29 487.729 1168.43 482.783 1168.44 476.675H1165.13" fill="url(#paint62_linear_101_202)"/>
<path d="M869.797 323.246L786.741 471.137L814.034 538.526L697.906 731.042L703.623 734.232L821.347 539.069L794.01 471.571L875.612 326.268L869.797 323.246Z" fill="url(#paint63_linear_101_202)"/>
<path d="M869.101 315.631H872.406C872.408 314.325 872.946 313.171 873.835 312.311C874.729 311.456 875.931 310.936 877.289 310.934C878.647 310.936 879.847 311.456 880.741 312.311C881.63 313.171 882.17 314.325 882.172 315.631C882.17 316.939 881.63 318.093 880.741 318.953C879.847 319.808 878.647 320.328 877.289 320.33C875.931 320.328 874.729 319.808 873.835 318.953C872.946 318.093 872.408 316.939 872.406 315.631H869.101H865.796C865.798 321.738 870.94 326.684 877.289 326.687C883.638 326.684 888.778 321.738 888.782 315.631C888.778 309.525 883.638 304.58 877.289 304.577C870.94 304.58 865.798 309.525 865.796 315.631H869.101" fill="url(#paint64_linear_101_202)"/>
<path d="M913.19 270.177C905.947 270.177 900.073 264.527 900.073 257.559C900.073 250.591 905.947 244.94 913.19 244.94C920.436 244.94 926.31 250.591 926.31 257.559C926.31 264.527 920.436 270.177 913.19 270.177ZM928.701 257.559C928.701 257.39 928.693 257.223 928.688 257.056L930.479 256.875L930.25 254.769L928.46 254.951C928.399 254.618 928.328 254.291 928.247 253.967L929.954 253.433L929.275 251.419L927.566 251.953C927.432 251.641 927.294 251.335 927.142 251.034L928.696 250.171L927.594 248.337L926.041 249.202C925.844 248.923 925.636 248.655 925.423 248.391L926.76 247.232L925.287 245.659L923.949 246.817C923.698 246.585 923.44 246.36 923.172 246.143L924.232 244.745L922.45 243.499L921.393 244.899C921.097 244.721 920.798 244.552 920.489 244.394L921.221 242.817L919.21 241.955L918.478 243.53C918.152 243.418 917.82 243.317 917.485 243.224L917.858 241.533L915.705 241.092L915.33 242.785C914.988 242.739 914.641 242.706 914.292 242.682V240.949H912.089V242.682C911.741 242.706 911.394 242.739 911.052 242.785L910.678 241.092L908.524 241.533L908.899 243.224C908.563 243.317 908.228 243.418 907.902 243.53L907.173 241.955L905.162 242.817L905.893 244.394C905.585 244.552 905.283 244.721 904.989 244.899L903.933 243.499L902.152 244.745L903.208 246.143C902.942 246.36 902.684 246.585 902.434 246.817L901.096 245.659L899.622 247.232L900.96 248.391C900.746 248.655 900.537 248.923 900.342 249.202L898.786 248.337L897.685 250.171L899.24 251.034C899.088 251.335 898.949 251.641 898.817 251.953L897.109 251.419L896.429 253.433L898.136 253.967C898.054 254.291 897.983 254.618 897.922 254.951L896.134 254.769L895.902 256.875L897.694 257.056C897.689 257.223 897.682 257.39 897.682 257.559C897.682 257.727 897.689 257.894 897.694 258.061L895.902 258.242L896.134 260.348L897.922 260.167C897.983 260.499 898.054 260.827 898.136 261.151L896.429 261.685L897.109 263.699L898.817 263.165C898.949 263.476 899.088 263.783 899.242 264.083L897.685 264.946L898.786 266.781L900.342 265.916C900.537 266.194 900.746 266.463 900.96 266.727L899.622 267.885L901.096 269.459L902.434 268.3C902.684 268.532 902.942 268.758 903.208 268.974L902.152 270.374L903.933 271.619L904.989 270.219C905.283 270.397 905.585 270.565 905.893 270.722L905.162 272.301L907.173 273.162L907.902 271.587C908.229 271.701 908.563 271.802 908.899 271.894L908.524 273.585L910.678 274.025L911.052 272.332C911.394 272.379 911.741 272.412 912.089 272.436V274.168H914.292V272.436C914.641 272.412 914.988 272.379 915.33 272.332L915.705 274.025L917.858 273.585L917.485 271.894C917.82 271.802 918.152 271.701 918.478 271.587L919.21 273.162L921.221 272.301L920.489 270.724C920.798 270.565 921.097 270.397 921.393 270.219L922.45 271.619L924.232 270.374L923.172 268.974C923.44 268.758 923.698 268.532 923.949 268.3L925.287 269.459L926.76 267.885L925.423 266.727C925.636 266.463 925.844 266.194 926.041 265.916L927.594 266.781L928.696 264.946L927.142 264.083C927.294 263.783 927.432 263.476 927.566 263.165L929.275 263.699L929.954 261.685L928.247 261.151C928.328 260.827 928.399 260.499 928.46 260.167L930.25 260.348L930.479 258.242L928.688 258.061C928.693 257.894 928.701 257.727 928.701 257.559" fill="url(#paint65_linear_101_202)"/>
<path d="M1066.29 548.368C1062.08 548.368 1058.67 545.087 1058.67 541.042C1058.67 536.997 1062.08 533.716 1066.29 533.716C1070.49 533.716 1073.9 536.997 1073.9 541.042C1073.9 545.087 1070.49 548.368 1066.29 548.368ZM1075.29 541.042L1075.28 540.751L1076.32 540.646L1076.19 539.422L1075.15 539.527C1075.11 539.335 1075.07 539.144 1075.03 538.957L1076.02 538.647L1075.62 537.477L1074.63 537.788C1074.56 537.606 1074.47 537.428 1074.39 537.254L1075.29 536.752L1074.65 535.687L1073.75 536.189C1073.63 536.029 1073.51 535.873 1073.39 535.719L1074.16 535.047L1073.31 534.133L1072.53 534.807C1072.39 534.672 1072.24 534.541 1072.08 534.416L1072.7 533.602L1071.66 532.88L1071.05 533.692C1070.88 533.589 1070.7 533.492 1070.52 533.4L1070.95 532.483L1069.78 531.982L1069.36 532.898C1069.17 532.833 1068.98 532.774 1068.78 532.72L1069 531.737L1067.75 531.483L1067.53 532.465C1067.33 532.438 1067.13 532.419 1066.92 532.405V531.399H1065.65V532.405C1065.45 532.419 1065.24 532.438 1065.05 532.465L1064.83 531.483L1063.58 531.737L1063.79 532.72C1063.6 532.774 1063.41 532.833 1063.22 532.898L1062.79 531.982L1061.63 532.483L1062.05 533.4C1061.87 533.492 1061.7 533.589 1061.53 533.692L1060.91 532.88L1059.88 533.602L1060.49 534.416C1060.34 534.541 1060.19 534.672 1060.04 534.807L1059.27 534.133L1058.41 535.047L1059.19 535.719C1059.06 535.873 1058.94 536.029 1058.83 536.189L1057.92 535.687L1057.28 536.752L1058.19 537.254C1058.1 537.428 1058.02 537.606 1057.94 537.788L1056.95 537.477L1056.56 538.647L1057.55 538.957C1057.5 539.144 1057.46 539.335 1057.42 539.527L1056.39 539.422L1056.25 540.646L1057.29 540.751L1057.28 541.042L1057.29 541.333L1056.25 541.439L1056.39 542.662L1057.42 542.557C1057.46 542.749 1057.5 542.94 1057.55 543.127L1056.56 543.436L1056.95 544.607L1057.94 544.296C1058.02 544.477 1058.1 544.655 1058.19 544.83L1057.28 545.33L1057.92 546.395L1058.83 545.893C1058.94 546.055 1059.06 546.211 1059.19 546.363L1058.41 547.037L1059.27 547.95L1060.04 547.277C1060.19 547.412 1060.34 547.543 1060.49 547.668L1059.88 548.481L1060.91 549.204L1061.53 548.392C1061.7 548.495 1061.87 548.593 1062.05 548.684L1061.63 549.599L1062.79 550.1L1063.22 549.186C1063.41 549.253 1063.6 549.31 1063.79 549.364L1063.58 550.345L1064.83 550.601L1065.05 549.619C1065.24 549.646 1065.45 549.665 1065.65 549.679V550.683H1066.92V549.679C1067.13 549.665 1067.33 549.646 1067.53 549.619L1067.75 550.601L1069 550.345L1068.78 549.364C1068.98 549.31 1069.17 549.253 1069.36 549.186L1069.78 550.1L1070.95 549.599L1070.52 548.684C1070.7 548.593 1070.88 548.495 1071.05 548.392L1071.66 549.204L1072.7 548.481L1072.08 547.668C1072.24 547.543 1072.39 547.412 1072.53 547.277L1073.31 547.95L1074.16 547.037L1073.39 546.363C1073.51 546.211 1073.63 546.055 1073.75 545.893L1074.65 546.395L1075.29 545.33L1074.39 544.83C1074.47 544.655 1074.56 544.477 1074.63 544.296L1075.62 544.607L1076.02 543.436L1075.03 543.127C1075.07 542.94 1075.11 542.749 1075.15 542.557L1076.19 542.662L1076.32 541.439L1075.28 541.333L1075.29 541.042Z" fill="url(#paint66_linear_101_202)"/>
<path d="M1045.6 170.708C1041.84 170.708 1038.78 167.772 1038.78 164.15C1038.78 160.526 1041.84 157.59 1045.6 157.59C1049.37 157.59 1052.42 160.526 1052.42 164.15C1052.42 167.772 1049.37 170.708 1045.6 170.708ZM1056.46 165.944L1055.66 165.664C1055.21 165.509 1054.94 165.089 1054.96 164.634C1054.97 164.474 1054.98 164.312 1054.98 164.15C1054.98 163.994 1054.97 163.84 1054.96 163.685L1056.58 163.269C1057.14 163.124 1057.48 162.565 1057.32 162.023L1056.86 160.352C1056.71 159.81 1056.13 159.486 1055.56 159.632L1054.74 159.845C1054.28 159.961 1053.81 159.772 1053.56 159.388L1053.45 159.226C1053.2 158.846 1053.22 158.351 1053.52 158.003L1054.07 157.374C1054.44 156.943 1054.39 156.301 1053.94 155.94L1052.56 154.829C1052.11 154.467 1051.44 154.522 1051.07 154.955L1050.52 155.581C1050.22 155.926 1049.72 156.037 1049.29 155.861C1048.98 155.729 1048.65 155.614 1048.31 155.517C1047.87 155.387 1047.56 154.995 1047.56 154.546V153.726C1047.56 153.163 1047.09 152.707 1046.5 152.707H1044.71C1044.12 152.707 1043.65 153.163 1043.65 153.726V154.543C1043.65 154.998 1043.33 155.389 1042.88 155.521L1042.69 155.578C1042.24 155.719 1041.75 155.571 1041.48 155.2L1040.99 154.53C1040.66 154.071 1040 153.958 1039.52 154.281L1038.04 155.273C1037.57 155.595 1037.45 156.231 1037.78 156.69L1038.27 157.363C1038.55 157.735 1038.52 158.229 1038.23 158.587L1038.11 158.738C1037.82 159.1 1037.33 159.251 1036.89 159.095L1036.09 158.815C1035.54 158.622 1034.93 158.895 1034.73 159.424L1034.12 161.047C1033.92 161.576 1034.2 162.161 1034.75 162.354L1035.55 162.633C1036 162.789 1036.27 163.209 1036.24 163.663C1036.23 163.824 1036.23 163.986 1036.23 164.15C1036.23 164.304 1036.23 164.458 1036.24 164.612L1034.63 165.029C1034.07 165.173 1033.73 165.733 1033.88 166.275L1034.35 167.945C1034.5 168.489 1035.08 168.811 1035.64 168.665L1036.47 168.454C1036.92 168.336 1037.39 168.525 1037.65 168.91L1037.75 169.072C1038.01 169.452 1037.99 169.946 1037.69 170.294L1037.14 170.922C1036.76 171.354 1036.82 171.997 1037.27 172.359L1038.65 173.468C1039.09 173.831 1039.76 173.775 1040.14 173.343L1040.69 172.715C1040.99 172.372 1041.48 172.26 1041.91 172.437C1042.23 172.569 1042.56 172.683 1042.89 172.78C1043.34 172.911 1043.65 173.303 1043.65 173.753V174.571C1043.65 175.134 1044.12 175.59 1044.71 175.59H1046.5C1047.09 175.59 1047.56 175.134 1047.56 174.571V173.754C1047.56 173.3 1047.87 172.909 1048.33 172.777L1048.52 172.72C1048.97 172.578 1049.46 172.726 1049.73 173.098L1050.21 173.766C1050.55 174.227 1051.21 174.339 1051.69 174.017L1053.16 173.027C1053.64 172.702 1053.76 172.067 1053.42 171.606L1052.93 170.935C1052.66 170.563 1052.68 170.069 1052.98 169.713L1053.1 169.558C1053.38 169.198 1053.87 169.048 1054.32 169.202L1055.12 169.482C1055.67 169.676 1056.27 169.403 1056.47 168.873L1057.09 167.251C1057.29 166.721 1057.01 166.136 1056.46 165.944" fill="url(#paint67_linear_101_202)"/>
<path d="M913.19 570.503C909.426 570.503 906.372 567.566 906.372 563.944C906.372 560.322 909.426 557.386 913.19 557.386C916.958 557.386 920.01 560.322 920.01 563.944C920.01 567.566 916.958 570.503 913.19 570.503ZM924.043 565.74L923.244 565.46C922.799 565.303 922.525 564.885 922.55 564.429C922.559 564.27 922.564 564.106 922.564 563.944C922.564 563.788 922.559 563.634 922.551 563.481L924.164 563.065C924.731 562.919 925.065 562.361 924.914 561.817L924.448 560.148C924.298 559.605 923.716 559.282 923.153 559.428L922.328 559.64C921.872 559.757 921.398 559.568 921.15 559.184L921.041 559.02C920.783 558.64 920.805 558.146 921.107 557.799L921.656 557.17C922.032 556.739 921.974 556.095 921.525 555.734L920.149 554.623C919.701 554.263 919.032 554.318 918.656 554.751L918.109 555.377C917.809 555.722 917.31 555.831 916.882 555.655C916.563 555.525 916.237 555.41 915.902 555.312C915.454 555.183 915.148 554.789 915.148 554.341V553.52C915.148 552.959 914.674 552.502 914.089 552.502H912.293C911.708 552.502 911.234 552.959 911.234 553.52V554.339C911.234 554.792 910.918 555.185 910.467 555.315L910.275 555.374C909.827 555.514 909.337 555.366 909.066 554.995L908.578 554.326C908.244 553.865 907.583 553.754 907.104 554.077L905.632 555.067C905.153 555.39 905.037 556.025 905.373 556.486L905.862 557.157C906.133 557.531 906.108 558.023 905.817 558.381L905.695 558.532C905.412 558.896 904.921 559.045 904.48 558.891L903.677 558.61C903.129 558.417 902.52 558.689 902.321 559.219L901.706 560.843C901.506 561.372 901.79 561.957 902.34 562.149L903.138 562.429C903.585 562.583 903.859 563.005 903.832 563.458C903.823 563.62 903.818 563.78 903.818 563.944C903.818 564.098 903.821 564.254 903.829 564.408L902.218 564.823C901.653 564.967 901.317 565.527 901.469 566.071L901.934 567.739C902.086 568.283 902.666 568.606 903.231 568.461L904.054 568.248C904.51 568.13 904.983 568.321 905.234 568.706L905.34 568.866C905.599 569.248 905.579 569.742 905.275 570.09L904.726 570.716C904.351 571.149 904.409 571.791 904.857 572.153L906.233 573.264C906.681 573.627 907.349 573.569 907.726 573.139L908.274 572.511C908.573 572.168 909.071 572.055 909.502 572.233C909.818 572.365 910.146 572.479 910.48 572.574C910.926 572.705 911.234 573.097 911.234 573.547V574.366C911.234 574.93 911.708 575.386 912.293 575.386H914.089C914.674 575.386 915.148 574.93 915.148 574.366V573.55C915.148 573.096 915.462 572.703 915.915 572.571L916.107 572.514C916.554 572.373 917.045 572.52 917.315 572.894L917.802 573.562C918.138 574.024 918.798 574.135 919.278 573.813L920.75 572.821C921.229 572.498 921.345 571.862 921.011 571.401L920.52 570.729C920.251 570.359 920.274 569.863 920.565 569.507L920.687 569.354C920.97 568.992 921.459 568.843 921.903 568.997L922.703 569.278C923.253 569.47 923.862 569.197 924.062 568.668L924.675 567.045C924.876 566.517 924.594 565.932 924.043 565.74" fill="url(#paint68_linear_101_202)"/>
<path d="M1114.42 527.468C1112.09 527.468 1110.2 525.651 1110.2 523.409C1110.2 521.168 1112.09 519.349 1114.42 519.349C1116.75 519.349 1118.64 521.168 1118.64 523.409C1118.64 525.651 1116.75 527.468 1114.42 527.468ZM1121.14 524.52L1120.64 524.348C1120.37 524.25 1120.2 523.99 1120.21 523.709L1120.22 523.409L1120.22 523.123L1121.21 522.865C1121.56 522.775 1121.77 522.43 1121.68 522.093L1121.39 521.06C1121.3 520.723 1120.94 520.524 1120.59 520.615L1120.08 520.745C1119.8 520.818 1119.5 520.7 1119.35 520.462L1119.28 520.362C1119.12 520.127 1119.14 519.821 1119.32 519.605L1119.66 519.217C1119.89 518.95 1119.86 518.551 1119.58 518.329L1118.73 517.641C1118.45 517.417 1118.04 517.453 1117.81 517.72L1117.47 518.108C1117.28 518.321 1116.97 518.389 1116.71 518.28C1116.51 518.197 1116.31 518.129 1116.1 518.067C1115.82 517.987 1115.64 517.742 1115.64 517.467V516.959C1115.64 516.611 1115.34 516.329 1114.98 516.329H1113.87C1113.51 516.329 1113.21 516.611 1113.21 516.959V517.466C1113.21 517.746 1113.02 517.989 1112.74 518.068L1112.62 518.105C1112.34 518.192 1112.04 518.102 1111.87 517.871L1111.57 517.458C1111.36 517.172 1110.95 517.102 1110.66 517.302L1109.75 517.916C1109.45 518.116 1109.38 518.509 1109.59 518.793L1109.89 519.209C1110.06 519.44 1110.04 519.745 1109.86 519.966L1109.78 520.06C1109.61 520.286 1109.31 520.378 1109.03 520.282L1108.54 520.109C1108.2 519.988 1107.82 520.158 1107.7 520.484L1107.32 521.49C1107.19 521.818 1107.37 522.179 1107.71 522.298L1108.2 522.471C1108.48 522.566 1108.65 522.827 1108.63 523.108L1108.62 523.409L1108.63 523.695L1107.63 523.954C1107.28 524.043 1107.07 524.389 1107.17 524.725L1107.46 525.758C1107.55 526.093 1107.91 526.294 1108.26 526.205L1108.77 526.073C1109.05 526.001 1109.34 526.117 1109.5 526.356L1109.56 526.456C1109.72 526.691 1109.71 526.998 1109.53 527.212L1109.19 527.6C1108.95 527.867 1108.99 528.264 1109.27 528.489L1110.12 529.177C1110.39 529.399 1110.81 529.366 1111.04 529.099L1111.38 528.711C1111.57 528.498 1111.87 528.428 1112.14 528.538C1112.34 528.619 1112.54 528.69 1112.75 528.751C1113.02 528.83 1113.21 529.073 1113.21 529.352V529.859C1113.21 530.207 1113.51 530.49 1113.87 530.49H1114.98C1115.34 530.49 1115.64 530.207 1115.64 529.859V529.353C1115.64 529.072 1115.83 528.83 1116.11 528.748L1116.23 528.713C1116.5 528.625 1116.81 528.717 1116.98 528.946L1117.28 529.361C1117.48 529.647 1117.89 529.716 1118.19 529.517L1119.1 528.902C1119.4 528.703 1119.47 528.309 1119.26 528.024L1118.96 527.608C1118.79 527.379 1118.81 527.072 1118.99 526.851L1119.06 526.756C1119.24 526.534 1119.54 526.44 1119.81 526.537L1120.31 526.71C1120.65 526.829 1121.03 526.661 1121.15 526.333L1121.53 525.329C1121.66 525.001 1121.48 524.639 1121.14 524.52" fill="url(#paint69_linear_101_202)"/>
<path opacity="0.5" d="M999.725 385.043C999.725 379.185 1004.25 374.706 1010.16 374.706C1016.08 374.706 1020.6 379.185 1020.6 385.043V391.934H1027.56V385.043C1027.56 375.395 1019.91 367.815 1010.16 367.815C1000.42 367.815 992.767 375.395 992.767 385.043V391.934H999.725V385.043ZM1015.38 410.885C1015.38 408.128 1012.95 405.716 1010.16 405.716C1007.38 405.716 1004.94 408.128 1004.94 410.885C1004.94 412.263 1005.64 413.641 1006.68 414.675V419.499C1006.68 421.566 1008.08 422.944 1010.16 422.944C1012.25 422.944 1013.64 421.566 1013.64 419.499V414.675C1014.69 413.641 1015.38 412.263 1015.38 410.885Z" fill="#4669AE"/>
<path d="M1027.56 391.934H992.767C986.852 391.934 982.329 396.413 982.329 402.271V426.39C982.329 432.247 986.852 436.727 992.767 436.727H1027.56C1033.47 436.727 1038 432.247 1038 426.39V402.271C1038 396.413 1033.47 391.934 1027.56 391.934ZM1013.64 414.675V419.499C1013.64 421.566 1012.25 422.944 1010.16 422.944C1008.08 422.944 1006.68 421.566 1006.68 419.499V414.675C1005.64 413.641 1004.94 412.263 1004.94 410.885C1004.94 408.128 1007.38 405.716 1010.16 405.716C1012.95 405.716 1015.38 408.128 1015.38 410.885C1015.38 412.263 1014.69 413.641 1013.64 414.675Z" fill="#4669AE"/>
<defs>
<filter id="filter0_di_101_202" x="863.915" y="267.232" width="304.19" height="257.787" filterUnits="userSpaceOnUse" color-interpolation-filters="sRGB">
<feFlood flood-opacity="0" result="BackgroundImageFix"/>
<feColorMatrix in="SourceAlpha" type="matrix" values="0 0 0 0 0 0 0 0 0 0 0 0 0 0 0 0 0 0 127 0" result="hardAlpha"/>
<feOffset/>
<feGaussianBlur stdDeviation="6.5798"/>
<feColorMatrix type="matrix" values="0 0 0 0 0.509804 0 0 0 0 0.843137 0 0 0 0 0.968627 0 0 0 1 0"/>
<feBlend mode="normal" in2="BackgroundImageFix" result="effect1_dropShadow_101_202"/>
<feBlend mode="normal" in="SourceGraphic" in2="effect1_dropShadow_101_202" result="shape"/>
<feColorMatrix in="SourceAlpha" type="matrix" values="0 0 0 0 0 0 0 0 0 0 0 0 0 0 0 0 0 0 127 0" result="hardAlpha"/>
<feOffset dy="3.50922"/>
<feGaussianBlur stdDeviation="4.38653"/>
<feComposite in2="hardAlpha" operator="arithmetic" k2="-1" k3="1"/>
<feColorMatrix type="matrix" values="0 0 0 0 0.509804 0 0 0 0 0.843137 0 0 0 0 0.968627 0 0 0 0.5 0"/>
<feBlend mode="normal" in2="shape" result="effect2_innerShadow_101_202"/>
</filter>
<filter id="filter1_di_101_202" x="876.27" y="277.524" width="279.478" height="237.204" filterUnits="userSpaceOnUse" color-interpolation-filters="sRGB">
<feFlood flood-opacity="0" result="BackgroundImageFix"/>
<feColorMatrix in="SourceAlpha" type="matrix" values="0 0 0 0 0 0 0 0 0 0 0 0 0 0 0 0 0 0 127 0" result="hardAlpha"/>
<feOffset/>
<feGaussianBlur stdDeviation="6.5798"/>
<feColorMatrix type="matrix" values="0 0 0 0 0.509804 0 0 0 0 0.843137 0 0 0 0 0.968627 0 0 0 1 0"/>
<feBlend mode="normal" in2="BackgroundImageFix" result="effect1_dropShadow_101_202"/>
<feBlend mode="normal" in="SourceGraphic" in2="effect1_dropShadow_101_202" result="shape"/>
<feColorMatrix in="SourceAlpha" type="matrix" values="0 0 0 0 0 0 0 0 0 0 0 0 0 0 0 0 0 0 127 0" result="hardAlpha"/>
<feOffset dy="3.50922"/>
<feGaussianBlur stdDeviation="4.38653"/>
<feComposite in2="hardAlpha" operator="arithmetic" k2="-1" k3="1"/>
<feColorMatrix type="matrix" values="0 0 0 0 0.509804 0 0 0 0 0.843137 0 0 0 0 0.968627 0 0 0 0.5 0"/>
<feBlend mode="normal" in2="shape" result="effect2_innerShadow_101_202"/>
</filter>
<linearGradient id="paint0_linear_101_202" x1="182.092" y1="-126.762" x2="743.754" y2="360.438" gradientUnits="userSpaceOnUse">
<stop stop-color="#2C50AA"/>
<stop offset="0.334905" stop-color="#274188"/>
<stop offset="0.707645" stop-color="#1F2B56"/>
<stop offset="1" stop-color="#1B2548"/>
</linearGradient>
<linearGradient id="paint1_linear_101_202" x1="94.1999" y1="-74.443" x2="757.604" y2="290.55" gradientUnits="userSpaceOnUse">
<stop stop-color="#2C50AA"/>
<stop offset="0.334905" stop-color="#274188"/>
<stop offset="0.707645" stop-color="#1F2B56"/>
<stop offset="1" stop-color="#1B2548"/>
</linearGradient>
<linearGradient id="paint2_linear_101_202" x1="182.091" y1="-126.763" x2="743.753" y2="360.438" gradientUnits="userSpaceOnUse">
<stop stop-color="#2C50AA"/>
<stop offset="0.334905" stop-color="#274188"/>
<stop offset="0.707645" stop-color="#1F2B56"/>
<stop offset="1" stop-color="#1B2548"/>
</linearGradient>
<linearGradient id="paint3_linear_101_202" x1="94.2277" y1="-76.6672" x2="759.69" y2="287.358" gradientUnits="userSpaceOnUse">
<stop stop-color="#2C50AA"/>
<stop offset="0.334905" stop-color="#274188"/>
<stop offset="0.707645" stop-color="#1F2B56"/>
<stop offset="1" stop-color="#1B2548"/>
</linearGradient>
<linearGradient id="paint4_linear_101_202" x1="182.086" y1="-126.766" x2="743.751" y2="360.44" gradientUnits="userSpaceOnUse">
<stop stop-color="#2C50AA"/>
<stop offset="0.334905" stop-color="#274188"/>
<stop offset="0.707645" stop-color="#1F2B56"/>
<stop offset="1" stop-color="#1B2548"/>
</linearGradient>
<linearGradient id="paint5_linear_101_202" x1="97.5911" y1="-75.307" x2="759.726" y2="287.214" gradientUnits="userSpaceOnUse">
<stop stop-color="#2C50AA"/>
<stop offset="0.334905" stop-color="#274188"/>
<stop offset="0.707645" stop-color="#1F2B56"/>
<stop offset="1" stop-color="#1B2548"/>
</linearGradient>
<linearGradient id="paint6_linear_101_202" x1="182.088" y1="-126.768" x2="743.754" y2="360.436" gradientUnits="userSpaceOnUse">
<stop stop-color="#2C50AA"/>
<stop offset="0.334905" stop-color="#274188"/>
<stop offset="0.707645" stop-color="#1F2B56"/>
<stop offset="1" stop-color="#1B2548"/>
</linearGradient>
<linearGradient id="paint7_linear_101_202" x1="97.7096" y1="-75.8664" x2="759.843" y2="286.657" gradientUnits="userSpaceOnUse">
<stop stop-color="#2C50AA"/>
<stop offset="0.334905" stop-color="#274188"/>
<stop offset="0.707645" stop-color="#1F2B56"/>
<stop offset="1" stop-color="#1B2548"/>
</linearGradient>
<linearGradient id="paint8_linear_101_202" x1="182.09" y1="-126.763" x2="743.752" y2="360.439" gradientUnits="userSpaceOnUse">
<stop stop-color="#2C50AA"/>
<stop offset="0.334905" stop-color="#274188"/>
<stop offset="0.707645" stop-color="#1F2B56"/>
<stop offset="1" stop-color="#1B2548"/>
</linearGradient>
<linearGradient id="paint9_linear_101_202" x1="95.8335" y1="-77.1572" x2="760.488" y2="286.573" gradientUnits="userSpaceOnUse">
<stop stop-color="#2C50AA"/>
<stop offset="0.334905" stop-color="#274188"/>
<stop offset="0.707645" stop-color="#1F2B56"/>
<stop offset="1" stop-color="#1B2548"/>
</linearGradient>
<linearGradient id="paint10_linear_101_202" x1="182.09" y1="-126.763" x2="743.753" y2="360.439" gradientUnits="userSpaceOnUse">
<stop stop-color="#2C50AA"/>
<stop offset="0.334905" stop-color="#274188"/>
<stop offset="0.707645" stop-color="#1F2B56"/>
<stop offset="1" stop-color="#1B2548"/>
</linearGradient>
<linearGradient id="paint11_linear_101_202" x1="95.6159" y1="-76.9927" x2="760.255" y2="286.731" gradientUnits="userSpaceOnUse">
<stop stop-color="#2C50AA"/>
<stop offset="0.334905" stop-color="#274188"/>
<stop offset="0.707645" stop-color="#1F2B56"/>
<stop offset="1" stop-color="#1B2548"/>
</linearGradient>
<linearGradient id="paint12_linear_101_202" x1="182.09" y1="-126.763" x2="743.752" y2="360.44" gradientUnits="userSpaceOnUse">
<stop stop-color="#2C50AA"/>
<stop offset="0.334905" stop-color="#274188"/>
<stop offset="0.707645" stop-color="#1F2B56"/>
<stop offset="1" stop-color="#1B2548"/>
</linearGradient>
<linearGradient id="paint13_linear_101_202" x1="96.3808" y1="-76.8187" x2="761.004" y2="286.898" gradientUnits="userSpaceOnUse">
<stop stop-color="#2C50AA"/>
<stop offset="0.334905" stop-color="#274188"/>
<stop offset="0.707645" stop-color="#1F2B56"/>
<stop offset="1" stop-color="#1B2548"/>
</linearGradient>
<linearGradient id="paint14_linear_101_202" x1="182.09" y1="-126.763" x2="743.753" y2="360.439" gradientUnits="userSpaceOnUse">
<stop stop-color="#2C50AA"/>
<stop offset="0.334905" stop-color="#274188"/>
<stop offset="0.707645" stop-color="#1F2B56"/>
<stop offset="1" stop-color="#1B2548"/>
</linearGradient>
<linearGradient id="paint15_linear_101_202" x1="96.566" y1="-76.6263" x2="761.187" y2="287.09" gradientUnits="userSpaceOnUse">
<stop stop-color="#2C50AA"/>
<stop offset="0.334905" stop-color="#274188"/>
<stop offset="0.707645" stop-color="#1F2B56"/>
<stop offset="1" stop-color="#1B2548"/>
</linearGradient>
<linearGradient id="paint16_linear_101_202" x1="1016.01" y1="511.86" x2="1016.01" y2="280.392" gradientUnits="userSpaceOnUse">
<stop stop-color="#5DFFFF"/>
<stop offset="1" stop-color="#00FFFF" stop-opacity="0.32"/>
</linearGradient>
<linearGradient id="paint17_linear_101_202" x1="1016.01" y1="501.568" x2="1016.01" y2="290.683" gradientUnits="userSpaceOnUse">
<stop stop-color="#5DFFFF"/>
<stop offset="1" stop-color="#00FFFF" stop-opacity="0.32"/>
</linearGradient>
<linearGradient id="paint18_linear_101_202" x1="871.691" y1="531.445" x2="871.691" y2="459.824" gradientUnits="userSpaceOnUse">
<stop stop-color="white"/>
<stop offset="1" stop-color="#CBDDFF" stop-opacity="0.32"/>
</linearGradient>
<linearGradient id="paint19_linear_101_202" x1="865.738" y1="534.63" x2="865.738" y2="437.978" gradientUnits="userSpaceOnUse">
<stop stop-color="white"/>
<stop offset="1" stop-color="#CBDDFF" stop-opacity="0.32"/>
</linearGradient>
<linearGradient id="paint20_linear_101_202" x1="885.477" y1="464.028" x2="885.477" y2="456.457" gradientUnits="userSpaceOnUse">
<stop stop-color="white"/>
<stop offset="1" stop-color="#CBDDFF" stop-opacity="0.32"/>
</linearGradient>
<linearGradient id="paint21_linear_101_202" x1="888.491" y1="442.183" x2="888.491" y2="434.612" gradientUnits="userSpaceOnUse">
<stop stop-color="white"/>
<stop offset="1" stop-color="#CBDDFF" stop-opacity="0.32"/>
</linearGradient>
<linearGradient id="paint22_linear_101_202" x1="909.254" y1="498.445" x2="909.254" y2="490.871" gradientUnits="userSpaceOnUse">
<stop stop-color="white"/>
<stop offset="1" stop-color="#CBDDFF" stop-opacity="0.32"/>
</linearGradient>
<linearGradient id="paint23_linear_101_202" x1="830.464" y1="629.711" x2="830.464" y2="622.139" gradientUnits="userSpaceOnUse">
<stop stop-color="white"/>
<stop offset="1" stop-color="#CBDDFF" stop-opacity="0.32"/>
</linearGradient>
<linearGradient id="paint24_linear_101_202" x1="810.997" y1="682.653" x2="810.997" y2="675.083" gradientUnits="userSpaceOnUse">
<stop stop-color="white"/>
<stop offset="1" stop-color="#CBDDFF" stop-opacity="0.32"/>
</linearGradient>
<linearGradient id="paint25_linear_101_202" x1="869.945" y1="679.264" x2="869.945" y2="482.052" gradientUnits="userSpaceOnUse">
<stop stop-color="white"/>
<stop offset="1" stop-color="#CBDDFF" stop-opacity="0.32"/>
</linearGradient>
<linearGradient id="paint26_linear_101_202" x1="869.859" y1="626.322" x2="869.859" y2="494.262" gradientUnits="userSpaceOnUse">
<stop stop-color="white"/>
<stop offset="1" stop-color="#CBDDFF" stop-opacity="0.32"/>
</linearGradient>
<linearGradient id="paint27_linear_101_202" x1="815.559" y1="727.875" x2="815.559" y2="530.663" gradientUnits="userSpaceOnUse">
<stop stop-color="white"/>
<stop offset="1" stop-color="#CBDDFF" stop-opacity="0.32"/>
</linearGradient>
<linearGradient id="paint28_linear_101_202" x1="799.212" y1="731.059" x2="799.212" y2="533.847" gradientUnits="userSpaceOnUse">
<stop stop-color="white"/>
<stop offset="1" stop-color="#CBDDFF" stop-opacity="0.32"/>
</linearGradient>
<linearGradient id="paint29_linear_101_202" x1="995.885" y1="582.078" x2="995.885" y2="536.874" gradientUnits="userSpaceOnUse">
<stop stop-color="white"/>
<stop offset="1" stop-color="#CBDDFF" stop-opacity="0.32"/>
</linearGradient>
<linearGradient id="paint30_linear_101_202" x1="1007.61" y1="597.333" x2="1007.61" y2="523.601" gradientUnits="userSpaceOnUse">
<stop stop-color="white"/>
<stop offset="1" stop-color="#CBDDFF" stop-opacity="0.32"/>
</linearGradient>
<linearGradient id="paint31_linear_101_202" x1="1024.88" y1="541.041" x2="1024.88" y2="533.467" gradientUnits="userSpaceOnUse">
<stop stop-color="white"/>
<stop offset="1" stop-color="#CBDDFF" stop-opacity="0.32"/>
</linearGradient>
<linearGradient id="paint32_linear_101_202" x1="1043.17" y1="527.77" x2="1043.17" y2="520.196" gradientUnits="userSpaceOnUse">
<stop stop-color="white"/>
<stop offset="1" stop-color="#CBDDFF" stop-opacity="0.32"/>
</linearGradient>
<linearGradient id="paint33_linear_101_202" x1="982.029" y1="538.063" x2="982.029" y2="530.489" gradientUnits="userSpaceOnUse">
<stop stop-color="white"/>
<stop offset="1" stop-color="#CBDDFF" stop-opacity="0.32"/>
</linearGradient>
<linearGradient id="paint34_linear_101_202" x1="901.985" y1="668.625" x2="901.985" y2="661.052" gradientUnits="userSpaceOnUse">
<stop stop-color="white"/>
<stop offset="1" stop-color="#CBDDFF" stop-opacity="0.32"/>
</linearGradient>
<linearGradient id="paint35_linear_101_202" x1="923.53" y1="707.592" x2="923.53" y2="511.42" gradientUnits="userSpaceOnUse">
<stop stop-color="white"/>
<stop offset="1" stop-color="#CBDDFF" stop-opacity="0.32"/>
</linearGradient>
<linearGradient id="paint36_linear_101_202" x1="942.007" y1="665.242" x2="942.007" y2="533.874" gradientUnits="userSpaceOnUse">
<stop stop-color="white"/>
<stop offset="1" stop-color="#CBDDFF" stop-opacity="0.32"/>
</linearGradient>
<linearGradient id="paint37_linear_101_202" x1="906.29" y1="777.053" x2="906.29" y2="580.879" gradientUnits="userSpaceOnUse">
<stop stop-color="white"/>
<stop offset="1" stop-color="#CBDDFF" stop-opacity="0.32"/>
</linearGradient>
<linearGradient id="paint38_linear_101_202" x1="911.451" y1="792.308" x2="911.451" y2="596.134" gradientUnits="userSpaceOnUse">
<stop stop-color="white"/>
<stop offset="1" stop-color="#CBDDFF" stop-opacity="0.32"/>
</linearGradient>
<linearGradient id="paint39_linear_101_202" x1="1160.4" y1="332.484" x2="1160.4" y2="260.863" gradientUnits="userSpaceOnUse">
<stop stop-color="white"/>
<stop offset="1" stop-color="#CBDDFF" stop-opacity="0.32"/>
</linearGradient>
<linearGradient id="paint40_linear_101_202" x1="1166.36" y1="354.331" x2="1166.36" y2="257.678" gradientUnits="userSpaceOnUse">
<stop stop-color="white"/>
<stop offset="1" stop-color="#CBDDFF" stop-opacity="0.32"/>
</linearGradient>
<linearGradient id="paint41_linear_101_202" x1="1146.62" y1="335.852" x2="1146.62" y2="328.28" gradientUnits="userSpaceOnUse">
<stop stop-color="white"/>
<stop offset="1" stop-color="#CBDDFF" stop-opacity="0.32"/>
</linearGradient>
<linearGradient id="paint42_linear_101_202" x1="1143.61" y1="357.697" x2="1143.61" y2="350.125" gradientUnits="userSpaceOnUse">
<stop stop-color="white"/>
<stop offset="1" stop-color="#CBDDFF" stop-opacity="0.32"/>
</linearGradient>
<linearGradient id="paint43_linear_101_202" x1="1122.84" y1="301.436" x2="1122.84" y2="293.862" gradientUnits="userSpaceOnUse">
<stop stop-color="white"/>
<stop offset="1" stop-color="#CBDDFF" stop-opacity="0.32"/>
</linearGradient>
<linearGradient id="paint44_linear_101_202" x1="1162.15" y1="310.256" x2="1162.15" y2="113.041" gradientUnits="userSpaceOnUse">
<stop stop-color="white"/>
<stop offset="1" stop-color="#CBDDFF" stop-opacity="0.32"/>
</linearGradient>
<linearGradient id="paint45_linear_101_202" x1="1162.24" y1="298.046" x2="1162.24" y2="165.985" gradientUnits="userSpaceOnUse">
<stop stop-color="white"/>
<stop offset="1" stop-color="#CBDDFF" stop-opacity="0.32"/>
</linearGradient>
<linearGradient id="paint46_linear_101_202" x1="1216.54" y1="261.645" x2="1216.54" y2="64.4323" gradientUnits="userSpaceOnUse">
<stop stop-color="white"/>
<stop offset="1" stop-color="#CBDDFF" stop-opacity="0.32"/>
</linearGradient>
<linearGradient id="paint47_linear_101_202" x1="1232.88" y1="258.461" x2="1232.88" y2="61.2486" gradientUnits="userSpaceOnUse">
<stop stop-color="white"/>
<stop offset="1" stop-color="#CBDDFF" stop-opacity="0.32"/>
</linearGradient>
<linearGradient id="paint48_linear_101_202" x1="1036.21" y1="255.433" x2="1036.21" y2="210.23" gradientUnits="userSpaceOnUse">
<stop stop-color="white"/>
<stop offset="1" stop-color="#CBDDFF" stop-opacity="0.32"/>
</linearGradient>
<linearGradient id="paint49_linear_101_202" x1="1024.48" y1="268.705" x2="1024.48" y2="194.975" gradientUnits="userSpaceOnUse">
<stop stop-color="white"/>
<stop offset="1" stop-color="#CBDDFF" stop-opacity="0.32"/>
</linearGradient>
<linearGradient id="paint50_linear_101_202" x1="1007.22" y1="258.839" x2="1007.22" y2="251.267" gradientUnits="userSpaceOnUse">
<stop stop-color="white"/>
<stop offset="1" stop-color="#CBDDFF" stop-opacity="0.32"/>
</linearGradient>
<linearGradient id="paint51_linear_101_202" x1="988.929" y1="272.111" x2="988.929" y2="264.537" gradientUnits="userSpaceOnUse">
<stop stop-color="white"/>
<stop offset="1" stop-color="#CBDDFF" stop-opacity="0.32"/>
</linearGradient>
<linearGradient id="paint52_linear_101_202" x1="900.734" y1="332.065" x2="900.734" y2="324.492" gradientUnits="userSpaceOnUse">
<stop stop-color="white"/>
<stop offset="1" stop-color="#CBDDFF" stop-opacity="0.32"/>
</linearGradient>
<linearGradient id="paint53_linear_101_202" x1="1050.07" y1="261.819" x2="1050.07" y2="254.245" gradientUnits="userSpaceOnUse">
<stop stop-color="white"/>
<stop offset="1" stop-color="#CBDDFF" stop-opacity="0.32"/>
</linearGradient>
<linearGradient id="paint54_linear_101_202" x1="1108.57" y1="280.888" x2="1108.57" y2="84.7164" gradientUnits="userSpaceOnUse">
<stop stop-color="white"/>
<stop offset="1" stop-color="#CBDDFF" stop-opacity="0.32"/>
</linearGradient>
<linearGradient id="paint55_linear_101_202" x1="1090.09" y1="258.436" x2="1090.09" y2="127.065" gradientUnits="userSpaceOnUse">
<stop stop-color="white"/>
<stop offset="1" stop-color="#CBDDFF" stop-opacity="0.32"/>
</linearGradient>
<linearGradient id="paint56_linear_101_202" x1="1125.81" y1="211.429" x2="1125.81" y2="15.257" gradientUnits="userSpaceOnUse">
<stop stop-color="white"/>
<stop offset="1" stop-color="#CBDDFF" stop-opacity="0.32"/>
</linearGradient>
<linearGradient id="paint57_linear_101_202" x1="1120.64" y1="196.173" x2="1120.64" y2="0" gradientUnits="userSpaceOnUse">
<stop stop-color="white"/>
<stop offset="1" stop-color="#CBDDFF" stop-opacity="0.32"/>
</linearGradient>
<linearGradient id="paint58_linear_101_202" x1="898.408" y1="376.76" x2="898.408" y2="287.37" gradientUnits="userSpaceOnUse">
<stop stop-color="white"/>
<stop offset="1" stop-color="#CBDDFF" stop-opacity="0.32"/>
</linearGradient>
<linearGradient id="paint59_linear_101_202" x1="1132.44" y1="464.029" x2="1132.44" y2="456.455" gradientUnits="userSpaceOnUse">
<stop stop-color="white"/>
<stop offset="1" stop-color="#CBDDFF" stop-opacity="0.32"/>
</linearGradient>
<linearGradient id="paint60_linear_101_202" x1="1130.11" y1="508.724" x2="1130.11" y2="419.333" gradientUnits="userSpaceOnUse">
<stop stop-color="white"/>
<stop offset="1" stop-color="#CBDDFF" stop-opacity="0.32"/>
</linearGradient>
<linearGradient id="paint61_linear_101_202" x1="1247.47" y1="469.063" x2="1247.47" y2="58.0745" gradientUnits="userSpaceOnUse">
<stop stop-color="white"/>
<stop offset="1" stop-color="#CBDDFF" stop-opacity="0.32"/>
</linearGradient>
<linearGradient id="paint62_linear_101_202" x1="1156.94" y1="487.729" x2="1156.94" y2="465.62" gradientUnits="userSpaceOnUse">
<stop stop-color="white"/>
<stop offset="1" stop-color="#CBDDFF" stop-opacity="0.32"/>
</linearGradient>
<linearGradient id="paint63_linear_101_202" x1="786.759" y1="734.232" x2="786.759" y2="323.246" gradientUnits="userSpaceOnUse">
<stop stop-color="white"/>
<stop offset="1" stop-color="#CBDDFF" stop-opacity="0.32"/>
</linearGradient>
<linearGradient id="paint64_linear_101_202" x1="877.289" y1="326.687" x2="877.289" y2="304.577" gradientUnits="userSpaceOnUse">
<stop stop-color="white"/>
<stop offset="1" stop-color="#CBDDFF" stop-opacity="0.32"/>
</linearGradient>
<linearGradient id="paint65_linear_101_202" x1="913.191" y1="274.168" x2="913.191" y2="240.949" gradientUnits="userSpaceOnUse">
<stop stop-color="white"/>
<stop offset="1" stop-color="#CBDDFF" stop-opacity="0.32"/>
</linearGradient>
<linearGradient id="paint66_linear_101_202" x1="1066.29" y1="550.683" x2="1066.29" y2="531.399" gradientUnits="userSpaceOnUse">
<stop stop-color="white"/>
<stop offset="1" stop-color="#CBDDFF" stop-opacity="0.32"/>
</linearGradient>
<linearGradient id="paint67_linear_101_202" x1="1045.6" y1="175.59" x2="1045.6" y2="152.707" gradientUnits="userSpaceOnUse">
<stop stop-color="white"/>
<stop offset="1" stop-color="#CBDDFF" stop-opacity="0.32"/>
</linearGradient>
<linearGradient id="paint68_linear_101_202" x1="913.192" y1="575.386" x2="913.192" y2="552.502" gradientUnits="userSpaceOnUse">
<stop stop-color="white"/>
<stop offset="1" stop-color="#CBDDFF" stop-opacity="0.32"/>
</linearGradient>
<linearGradient id="paint69_linear_101_202" x1="1114.42" y1="530.49" x2="1114.42" y2="516.329" gradientUnits="userSpaceOnUse">
<stop stop-color="white"/>
<stop offset="1" stop-color="#CBDDFF" stop-opacity="0.32"/>
</linearGradient>
</defs>
</svg>
