<svg width="68" height="68" viewBox="0 0 68 68" fill="none" xmlns="http://www.w3.org/2000/svg">
<g clip-path="url(#clip0_200_390)">
<path d="M33.881 0.000295573L34.2522 -0.00253776C40.426 -0.00253776 46.206 1.68896 51.153 4.63563L51 4.55063C56.6812 7.797 61.2893 12.6336 64.2572 18.4651L64.345 18.655L36.1958 17.1816C32.2406 16.9157 28.3042 17.9246 24.9645 20.0603L25.0382 20.015C21.7843 21.9841 19.3132 25.0198 18.0455 28.6056L18.0115 28.719L7.53949 12.6256C10.6674 8.71823 14.6349 5.56516 19.1477 3.4003L19.346 3.3153C23.8767 1.1325 28.8406 -0.0024393 33.8697 -0.00537109H33.8753L33.881 0.000295573ZM5.53916 15.3655L18.326 40.5255C20.0452 44.0102 22.8099 46.8709 26.2338 48.7081L26.333 48.7563C28.7556 50.0905 31.478 50.7857 34.2437 50.7765C35.3742 50.7765 36.4792 50.6631 37.5445 50.445L37.4397 50.462L28.713 67.5725C23.4704 66.7534 18.4924 64.7182 14.1775 61.6299C9.86262 58.5416 6.33075 54.486 3.86466 49.7876L3.77682 49.6006C1.28125 44.8463 -0.0143444 39.554 0.00282345 34.1845V33.7935C0.00282345 26.9283 2.07116 20.5505 5.61849 15.2408L5.54199 15.3626L5.53916 15.3655ZM65.7107 21.7773C67.1866 25.5279 67.9551 29.5193 67.9773 33.5498V33.564L67.9802 34.0513C67.9802 38.0321 67.3058 41.8571 66.062 45.4158L66.1357 45.175C64.8181 48.954 62.8368 52.4677 60.2848 55.5506L60.3302 55.494C57.7647 58.6369 54.6588 61.2966 51.1587 63.348L51 63.4358C45.8816 66.4488 40.047 68.0293 34.1077 68.0116C33.405 68.0116 32.7052 67.989 32.0138 67.9465L32.1102 67.9521L47.4753 44.3165C49.6985 41.0712 50.7972 37.1869 50.6033 33.258L50.6062 33.2976C50.5351 29.4135 49.0975 25.6786 46.546 22.7491L46.563 22.769L65.7107 21.7773ZM34 22.5366C37.0384 22.5381 39.9519 23.7458 42.1004 25.8943C44.2488 28.0427 45.4565 30.9562 45.458 33.9946C45.4565 37.033 44.2488 39.9465 42.1004 42.095C39.9519 44.2435 37.0384 45.4511 34 45.4526C30.9616 45.4511 28.0481 44.2435 25.8996 42.095C23.7512 39.9465 22.5435 37.033 22.542 33.9946C22.5435 30.9562 23.7512 28.0427 25.8996 25.8943C28.0481 23.7458 30.9616 22.5381 34 22.5366Z" fill="#031D51"/>
</g>
<defs>
<clipPath id="clip0_200_390">
<rect width="68" height="68" fill="white"/>
</clipPath>
</defs>
</svg>
