<svg width="78" height="77" viewBox="0 0 78 77" fill="none" xmlns="http://www.w3.org/2000/svg">
<path d="M28.7975 35.2597L22.9584 29.4205V19.2501H19.75V6.41675H29.375V19.2501H26.1667V28.1051L31.685 33.6234C33.9887 32.6038 36.4808 32.0792 39 32.0834C40.076 32.0826 41.1498 32.1792 42.2084 32.3722V18.9613C41.138 18.5829 40.2359 17.8383 39.6615 16.8591C39.0871 15.8799 38.8774 14.7292 39.0693 13.6103C39.2613 12.4914 39.8426 11.4763 40.7106 10.7446C41.5786 10.0129 42.6773 9.61156 43.8125 9.61156C44.9478 9.61156 46.0465 10.0129 46.9144 10.7446C47.7824 11.4763 48.3637 12.4914 48.5557 13.6103C48.7477 14.7292 48.5379 15.8799 47.9635 16.8591C47.3891 17.8383 46.487 18.5829 45.4167 18.9613V33.2705C48.2811 34.3409 50.8144 36.1441 52.7638 38.5001H61.7471C62.1255 37.4298 62.8701 36.5277 63.8493 35.9533C64.8285 35.3788 65.9793 35.1691 67.0982 35.3611C68.2171 35.553 69.2321 36.1344 69.9638 37.0023C70.6955 37.8703 71.0969 38.969 71.0969 40.1042C71.0969 41.2395 70.6955 42.3382 69.9638 43.2062C69.2321 44.0741 68.2171 44.6555 67.0982 44.8474C65.9793 45.0394 64.8285 44.8297 63.8493 44.2552C62.8701 43.6808 62.1255 42.7787 61.7471 41.7084H54.9454C55.7688 43.2472 56.353 44.9025 56.6779 46.6172C59.7726 46.8437 62.6591 48.2601 64.7317 50.5693C66.8044 52.8784 67.9019 55.9007 67.794 59.0017C67.686 62.1027 66.381 65.0414 64.1529 67.2008C61.9247 69.3603 58.9466 70.5726 55.8438 70.5834H24.5625C21.4555 70.5841 18.4312 69.5823 15.9392 67.7268C13.4471 65.8713 11.6202 63.2612 10.73 60.2845C9.83989 57.3078 9.93401 54.1232 10.9984 51.2043C12.0628 48.2853 14.0406 45.7876 16.6379 44.0826L10.5742 38.0188C9.53781 38.5173 8.35847 38.633 7.24499 38.3453C6.13152 38.0577 5.15576 37.3853 4.4905 36.4472C3.82523 35.5091 3.51339 34.3659 3.61018 33.22C3.70698 32.074 4.20617 30.9993 5.01937 30.1861C5.83256 29.3729 6.90728 28.8737 8.05323 28.7769C9.19917 28.6801 10.3424 28.992 11.2805 29.6572C12.2186 30.3225 12.891 31.2983 13.1786 32.4117C13.4662 33.5252 13.3506 34.7045 12.8521 35.7409L19.6859 42.5747C20.7526 42.1866 21.8621 41.9281 22.9904 41.8047C24.353 39.1749 26.3487 36.9256 28.7975 35.2597Z" fill="#031D51"/>
</svg>
