<svg width="82" height="81" viewBox="0 0 82 81" fill="none" xmlns="http://www.w3.org/2000/svg">
<path d="M27.5 38.907V20.25C27.5 16.6696 28.9223 13.2358 31.4541 10.7041C33.9858 8.17232 37.4196 6.75 41 6.75C44.5804 6.75 48.0142 8.17232 50.5459 10.7041C53.0777 13.2358 54.5 16.6696 54.5 20.25V38.907C57.5568 41.6411 59.7114 45.2389 60.6787 49.2243C61.646 53.2097 61.3804 57.3949 59.917 61.2261C58.4536 65.0573 55.8615 68.3538 52.4835 70.6795C49.1056 73.0052 45.1011 74.2505 41 74.2505C36.8989 74.2505 32.8944 73.0052 29.5165 70.6795C26.1385 68.3538 23.5464 65.0573 22.083 61.2261C20.6196 57.3949 20.354 53.2097 21.3213 49.2243C22.2886 45.2389 24.4432 41.6411 27.5 38.907ZM34.25 34.8975C36.4184 34.134 38.7011 33.7459 41 33.75C43.3659 33.75 45.6373 34.155 47.75 34.9009V20.25C47.75 18.4598 47.0388 16.7429 45.773 15.477C44.5071 14.2112 42.7902 13.5 41 13.5C39.2098 13.5 37.4929 14.2112 36.227 15.477C34.9612 16.7429 34.25 18.4598 34.25 20.25V34.9009V34.8975ZM41 60.75C42.7902 60.75 44.5071 60.0388 45.773 58.773C47.0388 57.5071 47.75 55.7902 47.75 54C47.75 52.2098 47.0388 50.4929 45.773 49.227C44.5071 47.9612 42.7902 47.25 41 47.25C39.2098 47.25 37.4929 47.9612 36.227 49.227C34.9612 50.4929 34.25 52.2098 34.25 54C34.25 55.7902 34.9612 57.5071 36.227 58.773C37.4929 60.0388 39.2098 60.75 41 60.75Z" fill="#031D51"/>
</svg>
