<svg width="82" height="81" viewBox="0 0 82 81" fill="none" xmlns="http://www.w3.org/2000/svg">
<path d="M41 43.875C41.9562 43.875 42.7584 43.551 43.4064 42.903C44.0521 42.2572 44.375 41.4562 44.375 40.5C44.375 39.5438 44.0521 38.7416 43.4064 38.0936C42.7584 37.4479 41.9562 37.125 41 37.125C40.0438 37.125 39.2428 37.4479 38.597 38.0936C37.949 38.7416 37.625 39.5438 37.625 40.5C37.625 41.4562 37.949 42.2572 38.597 42.903C39.2428 43.551 40.0438 43.875 41 43.875ZM51.125 43.875C52.0812 43.875 52.8834 43.551 53.5314 42.903C54.1771 42.2572 54.5 41.4562 54.5 40.5C54.5 39.5438 54.1771 38.7416 53.5314 38.0936C52.8834 37.4479 52.0812 37.125 51.125 37.125C50.1688 37.125 49.3678 37.4479 48.722 38.0936C48.074 38.7416 47.75 39.5438 47.75 40.5C47.75 41.4562 48.074 42.2572 48.722 42.903C49.3678 43.551 50.1688 43.875 51.125 43.875ZM30.875 43.875C31.8312 43.875 32.6334 43.551 33.2814 42.903C33.9271 42.2572 34.25 41.4562 34.25 40.5C34.25 39.5438 33.9271 38.7416 33.2814 38.0936C32.6334 37.4479 31.8312 37.125 30.875 37.125C29.9188 37.125 29.1178 37.4479 28.472 38.0936C27.824 38.7416 27.5 39.5438 27.5 40.5C27.5 41.4562 27.824 42.2572 28.472 42.903C29.1178 43.551 29.9188 43.875 30.875 43.875ZM41 54C41.9562 54 42.7584 53.676 43.4064 53.028C44.0521 52.3822 44.375 51.5812 44.375 50.625C44.375 49.6688 44.0521 48.8666 43.4064 48.2186C42.7584 47.5729 41.9562 47.25 41 47.25C40.0438 47.25 39.2428 47.5729 38.597 48.2186C37.949 48.8666 37.625 49.6688 37.625 50.625C37.625 51.5812 37.949 52.3822 38.597 53.028C39.2428 53.676 40.0438 54 41 54ZM51.125 54C52.0812 54 52.8834 53.676 53.5314 53.028C54.1771 52.3822 54.5 51.5812 54.5 50.625C54.5 49.6688 54.1771 48.8666 53.5314 48.2186C52.8834 47.5729 52.0812 47.25 51.125 47.25C50.1688 47.25 49.3678 47.5729 48.722 48.2186C48.074 48.8666 47.75 49.6688 47.75 50.625C47.75 51.5812 48.074 52.3822 48.722 53.028C49.3678 53.676 50.1688 54 51.125 54ZM30.875 54C31.8312 54 32.6334 53.676 33.2814 53.028C33.9271 52.3822 34.25 51.5812 34.25 50.625C34.25 49.6688 33.9271 48.8666 33.2814 48.2186C32.6334 47.5729 31.8312 47.25 30.875 47.25C29.9188 47.25 29.1178 47.5729 28.472 48.2186C27.824 48.8666 27.5 49.6688 27.5 50.625C27.5 51.5812 27.824 52.3822 28.472 53.028C29.1178 53.676 29.9188 54 30.875 54ZM41 33.75C41.9562 33.75 42.7584 33.426 43.4064 32.778C44.0521 32.1322 44.375 31.3312 44.375 30.375C44.375 29.4188 44.0521 28.6166 43.4064 27.9686C42.7584 27.3229 41.9562 27 41 27C40.0438 27 39.2428 27.3229 38.597 27.9686C37.949 28.6166 37.625 29.4188 37.625 30.375C37.625 31.3312 37.949 32.1322 38.597 32.778C39.2428 33.426 40.0438 33.75 41 33.75ZM51.125 33.75C52.0812 33.75 52.8834 33.426 53.5314 32.778C54.1771 32.1322 54.5 31.3312 54.5 30.375C54.5 29.4188 54.1771 28.6166 53.5314 27.9686C52.8834 27.3229 52.0812 27 51.125 27C50.1688 27 49.3678 27.3229 48.722 27.9686C48.074 28.6166 47.75 29.4188 47.75 30.375C47.75 31.3312 48.074 32.1322 48.722 32.778C49.3678 33.426 50.1688 33.75 51.125 33.75ZM30.875 33.75C31.8312 33.75 32.6334 33.426 33.2814 32.778C33.9271 32.1322 34.25 31.3312 34.25 30.375C34.25 29.4188 33.9271 28.6166 33.2814 27.9686C32.6334 27.3229 31.8312 27 30.875 27C29.9188 27 29.1178 27.3229 28.472 27.9686C27.824 28.6166 27.5 29.4188 27.5 30.375C27.5 31.3312 27.824 32.1322 28.472 32.778C29.1178 33.426 29.9188 33.75 30.875 33.75ZM41 74.25C36.3312 74.25 31.9438 73.3635 27.8375 71.5905C23.7313 69.8197 20.1594 67.4156 17.1219 64.3781C14.0844 61.3406 11.6803 57.7687 9.9095 53.6625C8.1365 49.5562 7.25 45.1688 7.25 40.5C7.25 35.8312 8.1365 31.4438 9.9095 27.3375C11.6803 23.2313 14.0844 19.6594 17.1219 16.6219C20.1594 13.5844 23.7313 11.1791 27.8375 9.40612C31.9438 7.63537 36.3312 6.75 41 6.75C45.6688 6.75 50.0562 7.63537 54.1625 9.40612C58.2687 11.1791 61.8406 13.5844 64.8781 16.6219C67.9156 19.6594 70.3197 23.2313 72.0905 27.3375C73.8635 31.4438 74.75 35.8312 74.75 40.5C74.75 45.1688 73.8635 49.5562 72.0905 53.6625C70.3197 57.7687 67.9156 61.3406 64.8781 64.3781C61.8406 67.4156 58.2687 69.8197 54.1625 71.5905C50.0562 73.3635 45.6688 74.25 41 74.25Z" fill="#031D51"/>
</svg>
